/* XPM */
static char *result[] = {
/* columns rows colors chars-per-pixel */
"64 64 3 1 ",
"  c #3E2731",
". c #A22633",
"X c #F77622",
/* pixels */
"  XXXXXX    XX    XXXXXX    XX    XXXXXX    XX    XXXXXX    XX  ",
"  XXXXXX    XX    XXXXXX    XX    XXXXXX    XX    XXXXXX    XX  ",
"    XX    XXXXXX    XX    XXXXXX    XX    XXXXXX    XX    XXXXXX",
"    XX    XXXXXX    XX    XXXXXX    XX    XXXXXX    XX    XXXXXX",
"XX      XXXX  XXXX      XXXX  XXXX      XXXX  XXXX      XXXX  XX",
"XX      XXXX  XXXX      XXXX  XXXX      XXXX  XXXX      XXXX  XX",
"XXXX  XXXX      XXXX  XXXX      XXXX  XXXX      XXXX  XXXX      ",
"XXXX  XXXX      XXXX  XXXX      XXXX  XXXX      XXXX  XXXX      ",
"  XX  XX    ..    XX  XX    ..    XX  XX    ..    XX  XX    ..  ",
"  XX  XX    ..    XX  XX    ..    XX  XX    ..    XX  XX    ..  ",
"  XX  XX  ......  XX  XX  ......  XX  XX  ......  XX  XX  ......",
"  XX  XX  ......  XX  XX  ......  XX  XX  ......  XX  XX  ......",
"  XX  XX  ......  XX  XX  ......  XX  XX  ......  XX  XX  ......",
"  XX  XX  ......  XX  XX  ......  XX  XX  ......  XX  XX  ......",
"  XX  XX    ..    XX  XX    ..    XX  XX    ..    XX  XX    ..  ",
"  XX  XX    ..    XX  XX    ..    XX  XX    ..    XX  XX    ..  ",
"XXXX  XXXX      XXXX  XXXX      XXXX  XXXX      XXXX  XXXX      ",
"XXXX  XXXX      XXXX  XXXX      XXXX  XXXX      XXXX  XXXX      ",
"XX      XXXX  XXXX      XXXX  XXXX      XXXX  XXXX      XXXX  XX",
"XX      XXXX  XXXX      XXXX  XXXX      XXXX  XXXX      XXXX  XX",
"    ..    XX  XX    ..    XX  XX    ..    XX  XX    ..    XX  XX",
"    ..    XX  XX    ..    XX  XX    ..    XX  XX    ..    XX  XX",
"  ......  XX  XX  ......  XX  XX  ......  XX  XX  ......  XX  XX",
"  ......  XX  XX  ......  XX  XX  ......  XX  XX  ......  XX  XX",
"  ......  XX  XX  ......  XX  XX  ......  XX  XX  ......  XX  XX",
"  ......  XX  XX  ......  XX  XX  ......  XX  XX  ......  XX  XX",
"    ..    XX  XX    ..    XX  XX    ..    XX  XX    ..    XX  XX",
"    ..    XX  XX    ..    XX  XX    ..    XX  XX    ..    XX  XX",
"XX      XXXX  XXXX      XXXX  XXXX      XXXX  XXXX      XXXX  XX",
"XX      XXXX  XXXX      XXXX  XXXX      XXXX  XXXX      XXXX  XX",
"XXXX  XXXX      XXXX  XXXX      XXXX  XXXX      XXXX  XXXX      ",
"XXXX  XXXX      XXXX  XXXX      XXXX  XXXX      XXXX  XXXX      ",
"  XXXXXX    XX    XXXXXX    XX    XXXXXX    XX    XXXXXX    XX  ",
"  XXXXXX    XX    XXXXXX    XX    XXXXXX    XX    XXXXXX    XX  ",
"    XX    XXXXXX    XX    XXXXXX    XX    XXXXXX    XX    XXXXXX",
"    XX    XXXXXX    XX    XXXXXX    XX    XXXXXX    XX    XXXXXX",
"XX      XXXX  XXXX      XXXX  XXXX      XXXX  XXXX      XXXX  XX",
"XX      XXXX  XXXX      XXXX  XXXX      XXXX  XXXX      XXXX  XX",
"XXXX  XXXX      XXXX  XXXX      XXXX  XXXX      XXXX  XXXX      ",
"XXXX  XXXX      XXXX  XXXX      XXXX  XXXX      XXXX  XXXX      ",
"  XX  XX    ..    XX  XX    ..    XX  XX    ..    XX  XX    ..  ",
"  XX  XX    ..    XX  XX    ..    XX  XX    ..    XX  XX    ..  ",
"  XX  XX  ......  XX  XX  ......  XX  XX  ......  XX  XX  ......",
"  XX  XX  ......  XX  XX  ......  XX  XX  ......  XX  XX  ......",
"  XX  XX  ......  XX  XX  ......  XX  XX  ......  XX  XX  ......",
"  XX  XX  ......  XX  XX  ......  XX  XX  ......  XX  XX  ......",
"  XX  XX    ..    XX  XX    ..    XX  XX    ..    XX  XX    ..  ",
"  XX  XX    ..    XX  XX    ..    XX  XX    ..    XX  XX    ..  ",
"XXXX  XXXX      XXXX  XXXX      XXXX  XXXX      XXXX  XXXX      ",
"XXXX  XXXX      XXXX  XXXX      XXXX  XXXX      XXXX  XXXX      ",
"XX      XXXX  XXXX      XXXX  XXXX      XXXX  XXXX      XXXX  XX",
"XX      XXXX  XXXX      XXXX  XXXX      XXXX  XXXX      XXXX  XX",
"    ..    XX  XX    ..    XX  XX    ..    XX  XX    ..    XX  XX",
"    ..    XX  XX    ..    XX  XX    ..    XX  XX    ..    XX  XX",
"  ......  XX  XX  ......  XX  XX  ......  XX  XX  ......  XX  XX",
"  ......  XX  XX  ......  XX  XX  ......  XX  XX  ......  XX  XX",
"  ......  XX  XX  ......  XX  XX  ......  XX  XX  ......  XX  XX",
"  ......  XX  XX  ......  XX  XX  ......  XX  XX  ......  XX  XX",
"    ..    XX  XX    ..    XX  XX    ..    XX  XX    ..    XX  XX",
"    ..    XX  XX    ..    XX  XX    ..    XX  XX    ..    XX  XX",
"XX      XXXX  XXXX      XXXX  XXXX      XXXX  XXXX      XXXX  XX",
"XX      XXXX  XXXX      XXXX  XXXX      XXXX  XXXX      XXXX  XX",
"XXXX  XXXX      XXXX  XXXX      XXXX  XXXX      XXXX  XXXX      ",
"XXXX  XXXX      XXXX  XXXX      XXXX  XXXX      XXXX  XXXX      "
};
