/* XPM */
static char *result[] = {
/* columns rows colors chars-per-pixel */
"128 128 3 1 ",
"  c #3E2731",
". c #A22633",
"X c #F77622",
/* pixels */
"    XXXXXXXXXXXX        XXXX        XXXXXXXXXXXX        XXXX        XXXXXXXXXXXX        XXXX        XXXXXXXXXXXX        XXXX    ",
"    XXXXXXXXXXXX        XXXX        XXXXXXXXXXXX        XXXX        XXXXXXXXXXXX        XXXX        XXXXXXXXXXXX        XXXX    ",
"    XXXXXXXXXXXX        XXXX        XXXXXXXXXXXX        XXXX        XXXXXXXXXXXX        XXXX        XXXXXXXXXXXX        XXXX    ",
"    XXXXXXXXXXXX        XXXX        XXXXXXXXXXXX        XXXX        XXXXXXXXXXXX        XXXX        XXXXXXXXXXXX        XXXX    ",
"        XXXX        XXXXXXXXXXXX        XXXX        XXXXXXXXXXXX        XXXX        XXXXXXXXXXXX        XXXX        XXXXXXXXXXXX",
"        XXXX        XXXXXXXXXXXX        XXXX        XXXXXXXXXXXX        XXXX        XXXXXXXXXXXX        XXXX        XXXXXXXXXXXX",
"        XXXX        XXXXXXXXXXXX        XXXX        XXXXXXXXXXXX        XXXX        XXXXXXXXXXXX        XXXX        XXXXXXXXXXXX",
"        XXXX        XXXXXXXXXXXX        XXXX        XXXXXXXXXXXX        XXXX        XXXXXXXXXXXX        XXXX        XXXXXXXXXXXX",
"XXXX            XXXXXXXX    XXXXXXXX            XXXXXXXX    XXXXXXXX            XXXXXXXX    XXXXXXXX            XXXXXXXX    XXXX",
"XXXX            XXXXXXXX    XXXXXXXX            XXXXXXXX    XXXXXXXX            XXXXXXXX    XXXXXXXX            XXXXXXXX    XXXX",
"XXXX            XXXXXXXX    XXXXXXXX            XXXXXXXX    XXXXXXXX            XXXXXXXX    XXXXXXXX            XXXXXXXX    XXXX",
"XXXX            XXXXXXXX    XXXXXXXX            XXXXXXXX    XXXXXXXX            XXXXXXXX    XXXXXXXX            XXXXXXXX    XXXX",
"XXXXXXXX    XXXXXXXX            XXXXXXXX    XXXXXXXX            XXXXXXXX    XXXXXXXX            XXXXXXXX    XXXXXXXX            ",
"XXXXXXXX    XXXXXXXX            XXXXXXXX    XXXXXXXX            XXXXXXXX    XXXXXXXX            XXXXXXXX    XXXXXXXX            ",
"XXXXXXXX    XXXXXXXX            XXXXXXXX    XXXXXXXX            XXXXXXXX    XXXXXXXX            XXXXXXXX    XXXXXXXX            ",
"XXXXXXXX    XXXXXXXX            XXXXXXXX    XXXXXXXX            XXXXXXXX    XXXXXXXX            XXXXXXXX    XXXXXXXX            ",
"    XXXX    XXXX        ....        XXXX    XXXX        ....        XXXX    XXXX        ....        XXXX    XXXX        ....    ",
"    XXXX    XXXX        ....        XXXX    XXXX        ....        XXXX    XXXX        ....        XXXX    XXXX        ....    ",
"    XXXX    XXXX        ....        XXXX    XXXX        ....        XXXX    XXXX        ....        XXXX    XXXX        ....    ",
"    XXXX    XXXX        ....        XXXX    XXXX        ....        XXXX    XXXX        ....        XXXX    XXXX        ....    ",
"    XXXX    XXXX    ............    XXXX    XXXX    ............    XXXX    XXXX    ............    XXXX    XXXX    ............",
"    XXXX    XXXX    ............    XXXX    XXXX    ............    XXXX    XXXX    ............    XXXX    XXXX    ............",
"    XXXX    XXXX    ............    XXXX    XXXX    ............    XXXX    XXXX    ............    XXXX    XXXX    ............",
"    XXXX    XXXX    ............    XXXX    XXXX    ............    XXXX    XXXX    ............    XXXX    XXXX    ............",
"    XXXX    XXXX    ............    XXXX    XXXX    ............    XXXX    XXXX    ............    XXXX    XXXX    ............",
"    XXXX    XXXX    ............    XXXX    XXXX    ............    XXXX    XXXX    ............    XXXX    XXXX    ............",
"    XXXX    XXXX    ............    XXXX    XXXX    ............    XXXX    XXXX    ............    XXXX    XXXX    ............",
"    XXXX    XXXX    ............    XXXX    XXXX    ............    XXXX    XXXX    ............    XXXX    XXXX    ............",
"    XXXX    XXXX        ....        XXXX    XXXX        ....        XXXX    XXXX        ....        XXXX    XXXX        ....    ",
"    XXXX    XXXX        ....        XXXX    XXXX        ....        XXXX    XXXX        ....        XXXX    XXXX        ....    ",
"    XXXX    XXXX        ....        XXXX    XXXX        ....        XXXX    XXXX        ....        XXXX    XXXX        ....    ",
"    XXXX    XXXX        ....        XXXX    XXXX        ....        XXXX    XXXX        ....        XXXX    XXXX        ....    ",
"XXXXXXXX    XXXXXXXX            XXXXXXXX    XXXXXXXX            XXXXXXXX    XXXXXXXX            XXXXXXXX    XXXXXXXX            ",
"XXXXXXXX    XXXXXXXX            XXXXXXXX    XXXXXXXX            XXXXXXXX    XXXXXXXX            XXXXXXXX    XXXXXXXX            ",
"XXXXXXXX    XXXXXXXX            XXXXXXXX    XXXXXXXX            XXXXXXXX    XXXXXXXX            XXXXXXXX    XXXXXXXX            ",
"XXXXXXXX    XXXXXXXX            XXXXXXXX    XXXXXXXX            XXXXXXXX    XXXXXXXX            XXXXXXXX    XXXXXXXX            ",
"XXXX            XXXXXXXX    XXXXXXXX            XXXXXXXX    XXXXXXXX            XXXXXXXX    XXXXXXXX            XXXXXXXX    XXXX",
"XXXX            XXXXXXXX    XXXXXXXX            XXXXXXXX    XXXXXXXX            XXXXXXXX    XXXXXXXX            XXXXXXXX    XXXX",
"XXXX            XXXXXXXX    XXXXXXXX            XXXXXXXX    XXXXXXXX            XXXXXXXX    XXXXXXXX            XXXXXXXX    XXXX",
"XXXX            XXXXXXXX    XXXXXXXX            XXXXXXXX    XXXXXXXX            XXXXXXXX    XXXXXXXX            XXXXXXXX    XXXX",
"        ....        XXXX    XXXX        ....        XXXX    XXXX        ....        XXXX    XXXX        ....        XXXX    XXXX",
"        ....        XXXX    XXXX        ....        XXXX    XXXX        ....        XXXX    XXXX        ....        XXXX    XXXX",
"        ....        XXXX    XXXX        ....        XXXX    XXXX        ....        XXXX    XXXX        ....        XXXX    XXXX",
"        ....        XXXX    XXXX        ....        XXXX    XXXX        ....        XXXX    XXXX        ....        XXXX    XXXX",
"    ............    XXXX    XXXX    ............    XXXX    XXXX    ............    XXXX    XXXX    ............    XXXX    XXXX",
"    ............    XXXX    XXXX    ............    XXXX    XXXX    ............    XXXX    XXXX    ............    XXXX    XXXX",
"    ............    XXXX    XXXX    ............    XXXX    XXXX    ............    XXXX    XXXX    ............    XXXX    XXXX",
"    ............    XXXX    XXXX    ............    XXXX    XXXX    ............    XXXX    XXXX    ............    XXXX    XXXX",
"    ............    XXXX    XXXX    ............    XXXX    XXXX    ............    XXXX    XXXX    ............    XXXX    XXXX",
"    ............    XXXX    XXXX    ............    XXXX    XXXX    ............    XXXX    XXXX    ............    XXXX    XXXX",
"    ............    XXXX    XXXX    ............    XXXX    XXXX    ............    XXXX    XXXX    ............    XXXX    XXXX",
"    ............    XXXX    XXXX    ............    XXXX    XXXX    ............    XXXX    XXXX    ............    XXXX    XXXX",
"        ....        XXXX    XXXX        ....        XXXX    XXXX        ....        XXXX    XXXX        ....        XXXX    XXXX",
"        ....        XXXX    XXXX        ....        XXXX    XXXX        ....        XXXX    XXXX        ....        XXXX    XXXX",
"        ....        XXXX    XXXX        ....        XXXX    XXXX        ....        XXXX    XXXX        ....        XXXX    XXXX",
"        ....        XXXX    XXXX        ....        XXXX    XXXX        ....        XXXX    XXXX        ....        XXXX    XXXX",
"XXXX            XXXXXXXX    XXXXXXXX            XXXXXXXX    XXXXXXXX            XXXXXXXX    XXXXXXXX            XXXXXXXX    XXXX",
"XXXX            XXXXXXXX    XXXXXXXX            XXXXXXXX    XXXXXXXX            XXXXXXXX    XXXXXXXX            XXXXXXXX    XXXX",
"XXXX            XXXXXXXX    XXXXXXXX            XXXXXXXX    XXXXXXXX            XXXXXXXX    XXXXXXXX            XXXXXXXX    XXXX",
"XXXX            XXXXXXXX    XXXXXXXX            XXXXXXXX    XXXXXXXX            XXXXXXXX    XXXXXXXX            XXXXXXXX    XXXX",
"XXXXXXXX    XXXXXXXX            XXXXXXXX    XXXXXXXX            XXXXXXXX    XXXXXXXX            XXXXXXXX    XXXXXXXX            ",
"XXXXXXXX    XXXXXXXX            XXXXXXXX    XXXXXXXX            XXXXXXXX    XXXXXXXX            XXXXXXXX    XXXXXXXX            ",
"XXXXXXXX    XXXXXXXX            XXXXXXXX    XXXXXXXX            XXXXXXXX    XXXXXXXX            XXXXXXXX    XXXXXXXX            ",
"XXXXXXXX    XXXXXXXX            XXXXXXXX    XXXXXXXX            XXXXXXXX    XXXXXXXX            XXXXXXXX    XXXXXXXX            ",
"    XXXXXXXXXXXX        XXXX        XXXXXXXXXXXX        XXXX        XXXXXXXXXXXX        XXXX        XXXXXXXXXXXX        XXXX    ",
"    XXXXXXXXXXXX        XXXX        XXXXXXXXXXXX        XXXX        XXXXXXXXXXXX        XXXX        XXXXXXXXXXXX        XXXX    ",
"    XXXXXXXXXXXX        XXXX        XXXXXXXXXXXX        XXXX        XXXXXXXXXXXX        XXXX        XXXXXXXXXXXX        XXXX    ",
"    XXXXXXXXXXXX        XXXX        XXXXXXXXXXXX        XXXX        XXXXXXXXXXXX        XXXX        XXXXXXXXXXXX        XXXX    ",
"        XXXX        XXXXXXXXXXXX        XXXX        XXXXXXXXXXXX        XXXX        XXXXXXXXXXXX        XXXX        XXXXXXXXXXXX",
"        XXXX        XXXXXXXXXXXX        XXXX        XXXXXXXXXXXX        XXXX        XXXXXXXXXXXX        XXXX        XXXXXXXXXXXX",
"        XXXX        XXXXXXXXXXXX        XXXX        XXXXXXXXXXXX        XXXX        XXXXXXXXXXXX        XXXX        XXXXXXXXXXXX",
"        XXXX        XXXXXXXXXXXX        XXXX        XXXXXXXXXXXX        XXXX        XXXXXXXXXXXX        XXXX        XXXXXXXXXXXX",
"XXXX            XXXXXXXX    XXXXXXXX            XXXXXXXX    XXXXXXXX            XXXXXXXX    XXXXXXXX            XXXXXXXX    XXXX",
"XXXX            XXXXXXXX    XXXXXXXX            XXXXXXXX    XXXXXXXX            XXXXXXXX    XXXXXXXX            XXXXXXXX    XXXX",
"XXXX            XXXXXXXX    XXXXXXXX            XXXXXXXX    XXXXXXXX            XXXXXXXX    XXXXXXXX            XXXXXXXX    XXXX",
"XXXX            XXXXXXXX    XXXXXXXX            XXXXXXXX    XXXXXXXX            XXXXXXXX    XXXXXXXX            XXXXXXXX    XXXX",
"XXXXXXXX    XXXXXXXX            XXXXXXXX    XXXXXXXX            XXXXXXXX    XXXXXXXX            XXXXXXXX    XXXXXXXX            ",
"XXXXXXXX    XXXXXXXX            XXXXXXXX    XXXXXXXX            XXXXXXXX    XXXXXXXX            XXXXXXXX    XXXXXXXX            ",
"XXXXXXXX    XXXXXXXX            XXXXXXXX    XXXXXXXX            XXXXXXXX    XXXXXXXX            XXXXXXXX    XXXXXXXX            ",
"XXXXXXXX    XXXXXXXX            XXXXXXXX    XXXXXXXX            XXXXXXXX    XXXXXXXX            XXXXXXXX    XXXXXXXX            ",
"    XXXX    XXXX        ....        XXXX    XXXX        ....        XXXX    XXXX        ....        XXXX    XXXX        ....    ",
"    XXXX    XXXX        ....        XXXX    XXXX        ....        XXXX    XXXX        ....        XXXX    XXXX        ....    ",
"    XXXX    XXXX        ....        XXXX    XXXX        ....        XXXX    XXXX        ....        XXXX    XXXX        ....    ",
"    XXXX    XXXX        ....        XXXX    XXXX        ....        XXXX    XXXX        ....        XXXX    XXXX        ....    ",
"    XXXX    XXXX    ............    XXXX    XXXX    ............    XXXX    XXXX    ............    XXXX    XXXX    ............",
"    XXXX    XXXX    ............    XXXX    XXXX    ............    XXXX    XXXX    ............    XXXX    XXXX    ............",
"    XXXX    XXXX    ............    XXXX    XXXX    ............    XXXX    XXXX    ............    XXXX    XXXX    ............",
"    XXXX    XXXX    ............    XXXX    XXXX    ............    XXXX    XXXX    ............    XXXX    XXXX    ............",
"    XXXX    XXXX    ............    XXXX    XXXX    ............    XXXX    XXXX    ............    XXXX    XXXX    ............",
"    XXXX    XXXX    ............    XXXX    XXXX    ............    XXXX    XXXX    ............    XXXX    XXXX    ............",
"    XXXX    XXXX    ............    XXXX    XXXX    ............    XXXX    XXXX    ............    XXXX    XXXX    ............",
"    XXXX    XXXX    ............    XXXX    XXXX    ............    XXXX    XXXX    ............    XXXX    XXXX    ............",
"    XXXX    XXXX        ....        XXXX    XXXX        ....        XXXX    XXXX        ....        XXXX    XXXX        ....    ",
"    XXXX    XXXX        ....        XXXX    XXXX        ....        XXXX    XXXX        ....        XXXX    XXXX        ....    ",
"    XXXX    XXXX        ....        XXXX    XXXX        ....        XXXX    XXXX        ....        XXXX    XXXX        ....    ",
"    XXXX    XXXX        ....        XXXX    XXXX        ....        XXXX    XXXX        ....        XXXX    XXXX        ....    ",
"XXXXXXXX    XXXXXXXX            XXXXXXXX    XXXXXXXX            XXXXXXXX    XXXXXXXX            XXXXXXXX    XXXXXXXX            ",
"XXXXXXXX    XXXXXXXX            XXXXXXXX    XXXXXXXX            XXXXXXXX    XXXXXXXX            XXXXXXXX    XXXXXXXX            ",
"XXXXXXXX    XXXXXXXX            XXXXXXXX    XXXXXXXX            XXXXXXXX    XXXXXXXX            XXXXXXXX    XXXXXXXX            ",
"XXXXXXXX    XXXXXXXX            XXXXXXXX    XXXXXXXX            XXXXXXXX    XXXXXXXX            XXXXXXXX    XXXXXXXX            ",
"XXXX            XXXXXXXX    XXXXXXXX            XXXXXXXX    XXXXXXXX            XXXXXXXX    XXXXXXXX            XXXXXXXX    XXXX",
"XXXX            XXXXXXXX    XXXXXXXX            XXXXXXXX    XXXXXXXX            XXXXXXXX    XXXXXXXX            XXXXXXXX    XXXX",
"XXXX            XXXXXXXX    XXXXXXXX            XXXXXXXX    XXXXXXXX            XXXXXXXX    XXXXXXXX            XXXXXXXX    XXXX",
"XXXX            XXXXXXXX    XXXXXXXX            XXXXXXXX    XXXXXXXX            XXXXXXXX    XXXXXXXX            XXXXXXXX    XXXX",
"        ....        XXXX    XXXX        ....        XXXX    XXXX        ....        XXXX    XXXX        ....        XXXX    XXXX",
"        ....        XXXX    XXXX        ....        XXXX    XXXX        ....        XXXX    XXXX        ....        XXXX    XXXX",
"        ....        XXXX    XXXX        ....        XXXX    XXXX        ....        XXXX    XXXX        ....        XXXX    XXXX",
"        ....        XXXX    XXXX        ....        XXXX    XXXX        ....        XXXX    XXXX        ....        XXXX    XXXX",
"    ............    XXXX    XXXX    ............    XXXX    XXXX    ............    XXXX    XXXX    ............    XXXX    XXXX",
"    ............    XXXX    XXXX    ............    XXXX    XXXX    ............    XXXX    XXXX    ............    XXXX    XXXX",
"    ............    XXXX    XXXX    ............    XXXX    XXXX    ............    XXXX    XXXX    ............    XXXX    XXXX",
"    ............    XXXX    XXXX    ............    XXXX    XXXX    ............    XXXX    XXXX    ............    XXXX    XXXX",
"    ............    XXXX    XXXX    ............    XXXX    XXXX    ............    XXXX    XXXX    ............    XXXX    XXXX",
"    ............    XXXX    XXXX    ............    XXXX    XXXX    ............    XXXX    XXXX    ............    XXXX    XXXX",
"    ............    XXXX    XXXX    ............    XXXX    XXXX    ............    XXXX    XXXX    ............    XXXX    XXXX",
"    ............    XXXX    XXXX    ............    XXXX    XXXX    ............    XXXX    XXXX    ............    XXXX    XXXX",
"        ....        XXXX    XXXX        ....        XXXX    XXXX        ....        XXXX    XXXX        ....        XXXX    XXXX",
"        ....        XXXX    XXXX        ....        XXXX    XXXX        ....        XXXX    XXXX        ....        XXXX    XXXX",
"        ....        XXXX    XXXX        ....        XXXX    XXXX        ....        XXXX    XXXX        ....        XXXX    XXXX",
"        ....        XXXX    XXXX        ....        XXXX    XXXX        ....        XXXX    XXXX        ....        XXXX    XXXX",
"XXXX            XXXXXXXX    XXXXXXXX            XXXXXXXX    XXXXXXXX            XXXXXXXX    XXXXXXXX            XXXXXXXX    XXXX",
"XXXX            XXXXXXXX    XXXXXXXX            XXXXXXXX    XXXXXXXX            XXXXXXXX    XXXXXXXX            XXXXXXXX    XXXX",
"XXXX            XXXXXXXX    XXXXXXXX            XXXXXXXX    XXXXXXXX            XXXXXXXX    XXXXXXXX            XXXXXXXX    XXXX",
"XXXX            XXXXXXXX    XXXXXXXX            XXXXXXXX    XXXXXXXX            XXXXXXXX    XXXXXXXX            XXXXXXXX    XXXX",
"XXXXXXXX    XXXXXXXX            XXXXXXXX    XXXXXXXX            XXXXXXXX    XXXXXXXX            XXXXXXXX    XXXXXXXX            ",
"XXXXXXXX    XXXXXXXX            XXXXXXXX    XXXXXXXX            XXXXXXXX    XXXXXXXX            XXXXXXXX    XXXXXXXX            ",
"XXXXXXXX    XXXXXXXX            XXXXXXXX    XXXXXXXX            XXXXXXXX    XXXXXXXX            XXXXXXXX    XXXXXXXX            ",
"XXXXXXXX    XXXXXXXX            XXXXXXXX    XXXXXXXX            XXXXXXXX    XXXXXXXX            XXXXXXXX    XXXXXXXX            "
};
