/* XPM */
static char *result[] = {
/* columns rows colors chars-per-pixel */
"32 32 3 1 ",
"  c #3E2731",
". c #A22633",
"X c #F77622",
/* pixels */
" XXX  X  XXX  X  XXX  X  XXX  X ",
"  X  XXX  X  XXX  X  XXX  X  XXX",
"X   XX XX   XX XX   XX XX   XX X",
"XX XX   XX XX   XX XX   XX XX   ",
" X X  .  X X  .  X X  .  X X  . ",
" X X ... X X ... X X ... X X ...",
" X X ... X X ... X X ... X X ...",
" X X  .  X X  .  X X  .  X X  . ",
"XX XX   XX XX   XX XX   XX XX   ",
"X   XX XX   XX XX   XX XX   XX X",
"  .  X X  .  X X  .  X X  .  X X",
" ... X X ... X X ... X X ... X X",
" ... X X ... X X ... X X ... X X",
"  .  X X  .  X X  .  X X  .  X X",
"X   XX XX   XX XX   XX XX   XX X",
"XX XX   XX XX   XX XX   XX XX   ",
" XXX  X  XXX  X  XXX  X  XXX  X ",
"  X  XXX  X  XXX  X  XXX  X  XXX",
"X   XX XX   XX XX   XX XX   XX X",
"XX XX   XX XX   XX XX   XX XX   ",
" X X  .  X X  .  X X  .  X X  . ",
" X X ... X X ... X X ... X X ...",
" X X ... X X ... X X ... X X ...",
" X X  .  X X  .  X X  .  X X  . ",
"XX XX   XX XX   XX XX   XX XX   ",
"X   XX XX   XX XX   XX XX   XX X",
"  .  X X  .  X X  .  X X  .  X X",
" ... X X ... X X ... X X ... X X",
" ... X X ... X X ... X X ... X X",
"  .  X X  .  X X  .  X X  .  X X",
"X   XX XX   XX XX   XX XX   XX X",
"XX XX   XX XX   XX XX   XX XX   "
};
