/* XPM */
static char *result[] = {
/* columns rows colors chars-per-pixel */
"64 64 4 1 ",
"  c #684641",
". c #845D3E",
"X c #9B6E4B",
"o c #A19794",
/* pixels */
"                                                                ",
"                                                                ",
"  XXXXXXXXXXXXXXXXXXXXXXXXXXXXXXXXXXXXXXXXXXXXXXXXXXXXXXXXXXXX  ",
"  XXXXXXXXXXXXXXXXXXXXXXXXXXXXXXXXXXXXXXXXXXXXXXXXXXXXXXXXXXXX  ",
"        XXXXXX..XXXXXXXXXXXXXXXXXXXXXXXXXXXXXXXXXXXXXXXXXXooXX  ",
"        XXXXXX..XXXXXXXXXXXXXXXXXXXXXXXXXXXXXXXXXXXXXXXXXXooXX  ",
"  ....................................XX......................  ",
"  ....................................XX......................  ",
"  XX........................XXXXXXXXXXXXXXXXXXXXXXXXXXXX......  ",
"  XX........................XXXXXXXXXXXXXXXXXXXXXXXXXXXX......  ",
"    ooXXXXXXXXXXXXXXXXXXXXXXXXXXXXXXXXXXXXXX..............ooXX  ",
"    ooXXXXXXXXXXXXXXXXXXXXXXXXXXXXXXXXXXXXXX..............ooXX  ",
"  XXXXXXXXXXXXXXXXXXXXXXXXXXXXXXXXXXXXXXXXXXXXXXXXXX  XXXXXXXX  ",
"  XXXXXXXXXXXXXXXXXXXXXXXXXXXXXXXXXXXXXXXXXXXXXXXXXX  XXXXXXXX  ",
"                                                                ",
"                                                                ",
"                                                                ",
"                                                                ",
"XXXXXXXXXXXXXXXXXXXXXXXXXX  XXXXXXXXXXXXXXXXXX    XXXXXXXXXXXXXX",
"XXXXXXXXXXXXXXXXXXXXXXXXXX  XXXXXXXXXXXXXXXXXX    XXXXXXXXXXXXXX",
"..............XXXXXXXX    XXXX............ooXX    XXoo..........",
"..............XXXXXXXX    XXXX............ooXX    XXoo..........",
"XXXXXXXXXXXXXXXXXXXXXXXXXX....XXXXXXXXXXXXXXXX      XXXXXXXXXXXX",
"XXXXXXXXXXXXXXXXXXXXXXXXXX....XXXXXXXXXXXXXXXX      XXXXXXXXXXXX",
"XXXXXXXXXXXXXXXX......XXXXXXXXXXXXXXXX..          XXXXXXXXXX....",
"XXXXXXXXXXXXXXXX......XXXXXXXXXXXXXXXX..          XXXXXXXXXX....",
"..........XXXXXXXXXXXXXXXX................XXXX    XXXXooXX..XX..",
"..........XXXXXXXXXXXXXXXX................XXXX    XXXXooXX..XX..",
"XXXX......XXXXXXXXXXXXXXXXXXXXXXXXXXXXXXXXXXXX    ..............",
"XXXX......XXXXXXXXXXXXXXXXXXXXXXXXXXXXXXXXXXXX    ..............",
"                                                                ",
"                                                                ",
"                                                                ",
"                                                                ",
"XXXXXX    XXXXXXXXXX......XXXXXXXXXXXXXXXXXXXXXXXXXXXXXXXXXXXXXX",
"XXXXXX    XXXXXXXXXX......XXXXXXXXXXXXXXXXXXXXXXXXXXXXXXXXXXXXXX",
"XXooXX    XXooXXXXXX..XXXXXXXXXXXXXXXXXXXXXXXXXXXXXX............",
"XXooXX    XXooXXXXXX..XXXXXXXXXXXXXXXXXXXXXXXXXXXXXX............",
"XXXXXX    XXXXXXXX..........................XXXX..XXXXXXXXXXXXXX",
"XXXXXX    XXXXXXXX..........................XXXX..XXXXXXXXXXXXXX",
"....XX          XXXXXXXXXXXXXXXXXXXXXXXXXXXXXXXXXXXXXXXX......XX",
"....XX          XXXXXXXXXXXXXXXXXXXXXXXXXXXXXXXXXXXXXXXX......XX",
"XXooXX    XXooXXXXXXXXXXXXXXXXXXXXXXXXXXXXXXXXXXXXXX....XXXXXXXX",
"XXooXX    XXooXXXXXXXXXXXXXXXXXXXXXXXXXXXXXXXXXXXXXX....XXXXXXXX",
"XXXXXX    XXXXXXXXXXXX......XXXXXXXXXXXXXX................XXXXXX",
"XXXXXX    XXXXXXXXXXXX......XXXXXXXXXXXXXX................XXXXXX",
"                                                                ",
"                                                                ",
"                                                                ",
"                                                                ",
"XXXXXXXXXXXXXXXXXXXXXXXXXXXXXXXXXX    XXXXXXXXXXXXXXXXXXXXXXXXXX",
"XXXXXXXXXXXXXXXXXXXXXXXXXXXXXXXXXX    XXXXXXXXXXXXXXXXXXXXXXXXXX",
"....XXXXXXXXXXXXXXXXXXXXXXXXXXooXX    XXoo..XXXXXXXXXXXXXXXXXXXX",
"....XXXXXXXXXXXXXXXXXXXXXXXXXXooXX    XXoo..XXXXXXXXXXXXXXXXXXXX",
"XXXX........XX......XXXXXXXX......        ........XXXXXXXX....XX",
"XXXX........XX......XXXXXXXX......        ........XXXXXXXX....XX",
"XXXXXXXXXXXXXXXXXXXXXXXXXXXXXXXXXX    XXXXXXXXXXXXXXXXXXXXXXXXXX",
"XXXXXXXXXXXXXXXXXXXXXXXXXXXXXXXXXX    XXXXXXXXXXXXXXXXXXXXXXXXXX",
"......XXXXXXXXXX      XXXXXX..ooXX    ..ooXXXXXXXXXXXXXXXXXXXX..",
"......XXXXXXXXXX      XXXXXX..ooXX    ..ooXXXXXXXXXXXXXXXXXXXX..",
"..........XXXXXXXXXXXX  XXXXXXXXXX    XXXXXXXXXXXXXXXXXXXXXX..XX",
"..........XXXXXXXXXXXX  XXXXXXXXXX    XXXXXXXXXXXXXXXXXXXXXX..XX",
"                                                                ",
"                                                                "
};
