/* XPM */
static char *result[] = {
/* columns rows colors chars-per-pixel */
"64 64 6 1 ",
"  c black",
". c gray33",
"X c #848484",
"o c gray66",
"O c #CECDCD",
"+ c white",
/* pixels */
" ...............................................................",
" .OOOOOOOOOOOOOOOOOOOOOOOOOOOOOOOOOOOOOOOOOOOOOOOOOOOOOOOOOOOOO.",
" .XoooooooooooooooooooooooooooooooooooooooooooooooooooooooooooO.",
" .XoooooooooooooooooooooooooooooooooooooooooooooooooooooooooooO.",
" .XoooooooooooooooooooooooooooooooooooooooooooooooooooooooooO...",
" .XoooooooooooooooooooooooooooooooooooooooooooooooooooooooooO.  ",
"..XoooooooooooooooXXXXXXXXXXXXXXooooooooooooooooooooooooooooO. .",
"OOOoooooooooooooooO............XooooooooooooooooooooooooooooO. .",
"ooooooooooooooooooO.          .XooooooooooooooooooooooooooooO. .",
"ooooooooooooooooooO. ........ .XXXXXXXXXXXXXXXXXXXooooooooooO. .",
"ooooooooooooooooooO. .OOOOOO. ...................XooooooooooO. .",
"ooooXXXXXXXXXXXXXXO. .XooooO.                   .XooooooooooO. .",
"ooooO............... .XooooO................... .XooooooooooO. .",
"ooooO.               .XooooOOOOOOOOOOOOOOOOOOO. .XooooooooooO. .",
"XXXXO. ...............XooooooooooooooooooooooO. .XXXXXXXXXXXO. .",
"...... .OOOOOOOOOOOOOOXooooooooooooooooooooooO. .............. .",
"       .XooooooooooooooooooooooooooooooooooooO.                .",
"........XooooooooooooooooooooooooooooooooooooO. ................",
"OOOOOOOOXooooooooooooooooooooooooooooooooooooO. .OOOOOOOOOOOOOOO",
"ooooooooooooooooooooooooooXXXXXXXXXXXXXXXXXXXO. .Xoooooooooooooo",
"oooooooooooooooooooooooooX..................... .Xoooooooooooooo",
"ooooooooooooooooooooooooX.++++++.++++++++++++.. .Xoooooooooooooo",
"oooooooooooooooooooooooX.+     +.+          +.. .XXXXXXooooooooo",
"ooooooooooooooooooooooX.+     +..+    +     +.. ......Xooooooooo",
"oooooooooooooooooooooX.+     +.O.+   ++     +..      .Xooooooooo",
"ooooooooooooooooooooX.+     +.XO.+  +.+     +....... .Xooooooooo",
"oooooooooooooooooooX.+     +.XoO.+ +..+     +.OOOOO. .Xooooooooo",
"ooooooooooooooooooX.+     +.XooO.++..+     +.OooooO. .Xooooooooo",
"oooooooooooooooooX.+     +.XXXXX....+     +.OXXoooO. .Xooooooooo",
"XXXXXXXXXXXXXXXXX.+     +..........+     +....XoooO. .XoOXXXXXXX",
".................+     +++++++++..+     +..++.XoooO. .XoO.......",
"                .+             +.+     +..+ +.XoooO. .XoO.      ",
"......... .......+             +.+     +.+  +.XXXXO. .XXO. .....",
"OOOOOOOO. .OOOOO.+             +.+     ++   +....... ..... .OOOO",
"oooooooO. .XoooO.+             +.+     +    +.             .Xooo",
"oooooooO. .XoooO.+             +.+          +...............Xooo",
"oooooooO. .XoooO.+++++++++     +.++++++++++++.OOOOOOOOOOOOOOXooo",
"oooooooO. .XoooO.........+     +..............Oooooooooooooooooo",
"ooooooOO. .XoooOOOOOOOOO.+     +.XOOOOOOOOOOOOOXXXXXXXXXXXXXXXoo",
"ooooooO.. .XoooooooooooO.+     +.XooooooO....................Xoo",
"ooooooO.  .XoooooooooooO.+     +.XooooooO.                  .Xoo",
"ooooooO. ..XoooooooooooO.+++++++.XooooooO. ................ .Xoo",
"ooooooO. .XXoooooooooooO.........XooooooO. .OOOOOOOOOOOOOO. .Xoo",
"ooooooO. .XooooooooooooOOOOOOOOOOOooooooO. .XooooooooooooO. .Xoo",
"ooooooO. .XoooooooooooooooooooooooooooooO. .XooooooooooooO. .Xoo",
"XXXXXXO. .XoooooooooooooooXXXXXXXXXXXXXXO. .XooooooooooooO. .XXX",
"........ .XoooooooooooooooO............... .XooooooooooooO. ....",
"         .XoooooooooooooooO.               .XooooooooooooO.     ",
"........ .XoooooooooooooooO. ....... .......XooooooooooooO......",
"OOOOOOO. .XoooooooooooooooO. .OOOOO. .OOOOOOXooooooooooooOOOOOOO",
"ooooooO. .XoooooooooooooooO. .XoooO. .Xooooooooooooooooooooooooo",
"ooooooO. .XXXXXXXXXXXXXXXXO. .XoooO. .Xooooooooooooooooooooooooo",
"ooooooO. ................... .XoooO. .Xooooooooooooooooooooooooo",
"ooooooO.                     .XoooO. .Xooooooooooooooooooooooooo",
"ooooooO.......................XoooO. .Xooooooooooooooooooooooooo",
"ooooooOOOOOOOOOOOOOOOOOOOOOOOOXoooO. .Xooooooooooooooooooooooooo",
"ooooooooooooooooooooooooooooooooooO. .XXoooooooooooooooooooooooo",
"ooooooooooooooooooooooooooooooooooO. ..Xoooooooooooooooooooooooo",
"ooooooooooooooooooooooooooooooooooO.  .Xoooooooooooooooooooooooo",
"ooooooooooooooooooooooooooooooooooO.. .Xoooooooooooooooooooooooo",
"ooooooooooooooooooooooooooooooooooOO. .Xoooooooooooooooooooooooo",
"XXXXXXXXXXXXXXXXXXXXXXXXXXXXXXXXXXXO. .XXXXXXXXXXXXXXXXXXXXXXXXX",
"..................................... ..........................",
"                                                                "
};
