/* XPM */
static char *result[] = {
/* columns rows colors chars-per-pixel */
"64 64 7 1 ",
"  c black",
". c gray33",
"X c #800000",
"o c #848484",
"O c gray66",
"+ c #CECDCD",
"@ c white",
/* pixels */
" ...............................................................",
" .+++++++++++++++++++++++++++++++++++++++++++++++++++++++++++++.",
" .oOOOOOOOOOOOOOOOOOOOOOOOOOOOOOOOOOOOOOOOOOOOOOOOOOOOOOOOOOOO+.",
" .oOOOOOOOOOOOOOOOOOOOOOOOOOOOOOOOOOOOOOOOOOOOOOOOOOOOOOOOOOOO+.",
" .oOOOOOOOOOOOOOOOOOOOOOOOOOOOOOOOOOOOOOOOOOOOOOOOOOOOOOOOOO+...",
" .oOOOOOOOOOOOOOOOOOOOOOOOOOOOOOOOOOOOOOOOOOOOOOOOOOOOOOOOOO+.  ",
"..oOOOOOOOOOOOOOOOooooooooooooooOOOOOOOOOOOOOOOOOOOOOOOOOOOO+. .",
"+++OOOOOOOOOOOOOOO+............oOOOOOOOOOOOOOOOOOOOOOOOOOOOO+. .",
"OOOOOOOOOOOOOOOOOO+.          .oOOOOOOOOOOOOOOOOOOOOOOOOOOOO+. .",
"OOOOOOOOOOOOOOOOOO+. ........ .oooooooooooooooooooOOOOOOOOOO+. .",
"OOOOOOOOOOOOOOOOOO+. .++++++. ...................oOOOOOOOOOO+. .",
"OOOOoooooooooooooo+. .oOOOO+.                   .oOOOOOOOOOO+. .",
"OOOO+............... .oOOOO+................... .oOOOOOOOOOO+. .",
"OOOO+.               .oOOOO+++++++++++++++++++. .oOOOOOOOOOO+. .",
"oooo+. ...............ooOOOOOOOOOOOOOOOOOOOOO+. .ooooooooooo+. .",
"...... .++++++++++++++o.oOOOOOOOOOOOOOOOOOOOO+. .............. .",
"       .oOOOOOOOOOOOO+.X.oOOOOOOOOOOOOOoOOOOO+.                .",
"........oOOOOOOOOOOO+.XXX.oOOOOOOOOOOO+.oOOOO+. ................",
"++++++++oOOOOOOOOOO+.XXXXX.oOOOOOOOOO+.X.oOOO+. .+++++++++++++++",
"OOOOOOOOOOOOOOOOOO+.XX@@@XX.oOOOOOOO+.XXX.oOO+. .oOOOOOOOOOOOOOO",
"OOOOOOOOOOOOOOOOO+.XX@@X@@XX.oOOOOO+.XX@XX.oO+. .oOOOOOOOOOOOOOO",
"OOOOOOOOOOOOOOOOO+.XX@XXX@XX.oOOOO+.XX@@@XX.o+. .oOOOOOOOOOOOOOO",
"OOOOOOOOOOOOOOOOO+.XX@@X@@XX.oOOOO+.XX@@@XX.o+. .ooooooOOOOOOOOO",
"OOOOOOOOOOOOOOooo+.XX@@@@@XX.ooooo.XX@XXX@XX.+. ......oOOOOOOOOO",
"OOOOOOOOOOOOOo....XX@XXXXX@XX.....XX@XXXXX@XX..      .oOOOOOOOOO",
"OOOOOOOOOOOOo.XXXXX@XXX@XXX@XXXXXXX@XX...XX@XX......X.oOOOOOOOOO",
"OOOOOOOOOOOo.XXXXX@XXX@@@XXX@XXXXX@XX.+++.XX@XX..++. .oOOOOOOOOO",
"OOOOOOOOOOo.XX@@@@XXX@X@X@XXX@@@@@XX.oOOO+.XX@XXX.+.X.oOOOOOOOOO",
"OOOOOOOOOo.XX@@X@@XX@XXXXX@XX@@X@@XX.oOOOO+.XX@@XX..X.oOOOOOOOOO",
"oooooooooo.XX@XXX@X@@@XXX@@@X@XXX@XX.oOOOO+.XX@@@XXXX.oO+ooooooo",
"...........XX@@X@@XX@XXXXX@XX@@X@@XX.oOOOO+.XX@@XX..X.oO+.......",
"    X XX XXXXX@@@@XXX@XXXXXXXX@@@XX.oOOOO+.XX@XXX.+.X.oO+.      ",
"......... ...XXXXX@XXX@X@XX..XXXXX.oooooo.XX@XXX.o+.X.oo+. .....",
"++++++++.X.++.XXXXX@XXX@@XX.+.XXX........XX@XX...... ..... .++++",
"OOOOOOO+.X.oO+....XX@X@@@XX.o+.XXXXXXXXXXX@XXX    X X XX X .oOOO",
"OOOOOOO+.X.oOO++++.XX@XXXXX.o+.........XX@XX................oOOO",
"OOOOOOO+. .oOOOOOO+.XX@XXXX.o++++++++.XX@XX.++++++++++++++++oOOO",
"OOOOOOO+.X.oOOOOOOO+.XX@XX..oOOOOOO+.XX@XX.oOOOOOOOOOOOOOOOOOOOO",
"OOOOOO++. .oOOOOOOOO+.XX@XX.oOOOOO+.XX@XX.ooooooooooooooooooooOO",
"OOOOOO+.. .oOOOOOOOOO+.XX@XX.ooooo.XX@XX.....................oOO",
"OOOOOO+.  .oOOOOOOOOOO+.XX@XX.....XX@XX.+.                  .oOO",
"OOOOOO+. ..oOOOOOOOOOOO+.XX@XXXXXXX@XX.++. ................ .oOO",
"OOOOOO+. .ooOOOOOOOOOOOO+.XX@XXXXX@XX.+O+. .++++++++++++++. .oOO",
"OOOOOO+. .oOOOOOOOOOOOOOO+.XX@@@@@XX.oOO+. .oOOOOOOOOOOOO+. .oOO",
"OOOOOO+. .oOOOOOOOOOOOOOO+.XX@@X@@XX.oOO+. .oOOOOOOOOOOOO+. .oOO",
"oooooo+. .oOOOOOOOOOOOOOO+.XX@XXX@XX.ooo+. .oOOOOOOOOOOOO+. .ooo",
"........ .oOOOOOOOOOOOOOO+.XX@@X@@XX...... .oOOOOOOOOOOOO+. ....",
"         .oOOOOOOOOOOOOOO++.XX@@@XXXXX  XXX.oOOOOOOOOOOOO+.     ",
"........ .oOOOOOOOOOOOOOOO+.XXXXXX.. .......oOOOOOOOOOOOO+......",
"+++++++. .oOOOOOOOOOOOOOOO+.X.XXX.+.X.++++++oOOOOOOOOOOOO+++++++",
"OOOOOO+. .oOOOOOOOOOOOOOOO+.X....++. .oOOOOOOOOOOOOOOOOOOOOOOOOO",
"OOOOOO+. .oooooooooooooooo+. .o++O+.X.oOOOOOOOOOOOOOOOOOOOOOOOOO",
"OOOOOO+. ...................X.oOOO+.X.oOOOOOOOOOOOOOOOOOOOOOOOOO",
"OOOOOO+.              X XXX X.oOOO+. .oOOOOOOOOOOOOOOOOOOOOOOOOO",
"OOOOOO+.......................oOOO+. .oOOOOOOOOOOOOOOOOOOOOOOOOO",
"OOOOOO++++++++++++++++++++++++oOOO+.X.oOOOOOOOOOOOOOOOOOOOOOOOOO",
"OOOOOOOOOOOOOOOOOOOOOOOOOOOOOOOOOO+. .ooOOOOOOOOOOOOOOOOOOOOOOOO",
"OOOOOOOOOOOOOOOOOOOOOOOOOOOOOOOOOO+. ..oOOOOOOOOOOOOOOOOOOOOOOOO",
"OOOOOOOOOOOOOOOOOOOOOOOOOOOOOOOOOO+.  .oOOOOOOOOOOOOOOOOOOOOOOOO",
"OOOOOOOOOOOOOOOOOOOOOOOOOOOOOOOOOO+.. .oOOOOOOOOOOOOOOOOOOOOOOOO",
"OOOOOOOOOOOOOOOOOOOOOOOOOOOOOOOOOO++. .oOOOOOOOOOOOOOOOOOOOOOOOO",
"ooooooooooooooooooooooooooooooooooo+. .ooooooooooooooooooooooooo",
"..................................... ..........................",
"                                                                "
};
