/* XPM */
static char *result[] = {
/* columns rows colors chars-per-pixel */
"64 64 7 1 ",
"  c black",
". c gray33",
"X c #4DAC73",
"o c #848484",
"O c gray66",
"+ c #CECDCD",
"@ c white",
/* pixels */
" ...............................................................",
" .+++++++++++++++++++++++++++++++++++++++++++++++++++++++++++++.",
" .oOOOOOOOOOOOOOOOOOOOOOOOOOOOOOOOOOOOOOOOOOOOOOOOOOOOOOOOOOOO+.",
" .oOOOOOOOOOOOOOOOOOOOOOOOOOOOOOOOOOOOOOOOOOOOOOOOOOOOOOOOOOOO+.",
" .oOOOOOOOOOOOOOOOOOOOOOOOOOOOOOOOOOOOOOOOOOOOOOOOOOOOOOOOOO+...",
" .oOOOOOOOOOOOOOOOOOOOOOOOOOOOOOOOOOOOOOOOOOOOOOOOOOOOOOOOOO+.  ",
"..oOOOOOOOOOOOOOOOooooooooooooooOOOOOOOOOOOOOOOOOOOOOOOOOOOO+. .",
"+++OOOOOOOOOOOOOOO+............oOOOOOOOOOOOOOOOOOOOOOOOOOOOO+. .",
"OOOOOOOOOOOOOOOOOO+.XX X      .oOOOOOOOOOOOOOOOOOOOOOOOOOOOO+. .",
"OOOOOOOOOOOOOOOOOO+. ........ .oooooooooooooooooooOOOOOOOOOO+. .",
"OOOOOOOOOOOOOOOOOO+.X.++++++. ...................oOOOOOOOOOO+. .",
"OOOOoooooooooooooo+.X.oOOOO+.                   .oOOOOOOOOOO+. .",
"OOOO+...............X.oOOOO+................... .oOOOOOOOOOO+. .",
"OOOO+.      X XX XXXX..oOOO+++++++++++++++++++. .oOOOOOOOOOO+. .",
"oooo+. .............XXX.oOOOOOOOOOOOOOOOOOOOO+. .ooooooooooo+. .",
"...... .++++++++++.XXXXX.oOOOOOOOOOOOOOOOOOOO+. .............. .",
"       .oOOOOOOO+.XX@@@XX.oOOOOOOOOOOOOOOOOOO+.                .",
"........oOOOOOO+.XX@@X@@XX.oOOOOOOOOOOOOOOOOO+.X................",
"++++++++oOOOOOO+.XX@XXX@XX.oOOOOOOOOOOOoooOOO+. .+++++++++++++++",
"OOOOOOOOOOOOOOO+.XX@@X@@XX.oOOOOOOOOOOo...oOO+.X.oOOOOOOOOOOOOOO",
"OOOOOOOOOOOOOOOO+.XX@@@XX.oooooooooooo.XXX.oO+.X.oOOOOOOOOOOOOOO",
"OOOOOOOOOOOOOOOOO+.XX@XX..............XXXXX.o+. .oOOOOOOOOOOOOOO",
"OOOOOOOOOOOOOOOOO+.XX@XXXXXXXXXXXXXXXXX@@@XX.+.X.ooooooOOOOOOOOO",
"OOOOOOOOOOOOOOOOO+.XX@XXXXXXXXXXXXXXXX@@@@@XX..X......oOOOOOOOOO",
"OOOOOOOOOOOOOOOO+.XX@@@@@@@@@@@@@@@@@@@@@@@XXXXXX XXX.oOOOOOOOOO",
"OOOOOOOOOOOOOOOOO+.XX@XXXXX@XXXXXXXXXX@@@@@XX....... .oOOOOOOOOO",
"OOOOOOOOOOOOOOOOO+.XX@XXXXX@XXXXXXXX@XX@@@XX.++++++.X.oOOOOOOOOO",
"OOOOOOOOOOOOOOOOO+.XX@XXXX@@@@@@@@@@@@XX@XX.oOOOOO+. .oOOOOOOOOO",
"OOOOOOOOOOOOOOOOO+.XX@XX.XX@XXXXXXXX@XXX@XX.oOOOOO+. .oOOOOOOOOO",
"oooooooooooooooooo.XX@XX..XXXXXXXXXX@XXX@XX.oOOOOO+. .oO+ooooooo",
"...................XX@XX...X......XX@XXX@XX.oOOOOO+. .oO+.......",
"        X  XX XXXXXXX@XXXXXXXXXX..XX@XXX@XX.oOOOOO+. .oO+.      ",
".........X.........XX@XX......XXXXXX@XXX@XX.oooooo+. .oo+. .....",
"++++++++. .+++++++.XX@XX.....XXXXXXX@XXX@XX......... ..... .++++",
"OOOOOOO+. .oOOOOO+.XX@XX.XXXXX@@XXXX@XXX@XXX               .oOOO",
"OOOOOOO+. .oOOOOO+.XX@XXXXXXX@@@@@@@@@XX@XX.................oOOO",
"OOOOOOO+. .oOOOOO+.XX@XXX@X@XX@@XXXX@XX@@@XX.+++++++++++++++oOOO",
"OOOOOOO+. .oOOOOO+.XX@XX@@X@XXXXXXXXXX@@@@@XX.oOOOOOOOOOOOOOOOOO",
"OOOOOO++. .oOOOOO+.XX@X@@@X@@@@@@@@@@@@@@@@XX.ooooooooooooooooOO",
"OOOOOO+.. .oOOOOO+.XX@XX@@X@XXXXXXXXXX@@@@@XX................oOO",
"OOOOOO+.  .oOOOOO+.XX@XXX@X@XXXXXXXXXXX@@@XXXX X XX X       .oOO",
"OOOOOO+. ..oOOOOO+.XX@XXXXXXXX........XXXXXX............... .oOO",
"OOOOOO+. .ooOOOOO+.XX@XX.XXXXX.+++++++.XXXX..+++++++++++++. .oOO",
"OOOOOO+. .oOOOOOO+.XX@XX.......+OOOOOO+...X.oOOOOOOOOOOOO+. .oOO",
"OOOOOO+. .oOOOOOO+.XX@XX.+++++++OOOOOOO++.X.oOOOOOOOOOOOO+. .oOO",
"oooooo+. .oOOOO+...XX@XX...ooooooooooooo+. .oOOOOOOOOOOOO+. .ooo",
"........ .oOOOO+.XXXX@XXXX................X.oOOOOOOOOOOOO+. ....",
"         .oOOOO+.XXXX@XXXX..               .oOOOOOOOOOOOO+.     ",
"........ .oOOOO+.XX@@@@@XX.. ....... .......oOOOOOOOOOOOO+......",
"+++++++. .oOOOO+.XXXXXXXXX.. .+++++. .++++++oOOOOOOOOOOOO+++++++",
"OOOOOO+. .oOOOO+.XX@@@@@XX.. .oOOO+. .oOOOOOOOOOOOOOOOOOOOOOOOOO",
"OOOOOO+. .ooooooo.XX@@@XX.+. .oOOO+. .oOOOOOOOOOOOOOOOOOOOOOOOOO",
"OOOOOO+. ..........XX@XX.... .oOOO+. .oOOOOOOOOOOOOOOOOOOOOOOOOO",
"OOOOOO+.       X XXXXXXX XX X.oOOO+. .oOOOOOOOOOOOOOOOOOOOOOOOOO",
"OOOOOO+..............X........oOOO+. .oOOOOOOOOOOOOOOOOOOOOOOOOO",
"OOOOOO+++++++++++++++.++++++++oOOO+. .oOOOOOOOOOOOOOOOOOOOOOOOOO",
"OOOOOOOOOOOOOOOOOOOOOOOOOOOOOOOOOO+. .ooOOOOOOOOOOOOOOOOOOOOOOOO",
"OOOOOOOOOOOOOOOOOOOOOOOOOOOOOOOOOO+. ..oOOOOOOOOOOOOOOOOOOOOOOOO",
"OOOOOOOOOOOOOOOOOOOOOOOOOOOOOOOOOO+.  .oOOOOOOOOOOOOOOOOOOOOOOOO",
"OOOOOOOOOOOOOOOOOOOOOOOOOOOOOOOOOO+.. .oOOOOOOOOOOOOOOOOOOOOOOOO",
"OOOOOOOOOOOOOOOOOOOOOOOOOOOOOOOOOO++. .oOOOOOOOOOOOOOOOOOOOOOOOO",
"ooooooooooooooooooooooooooooooooooo+. .ooooooooooooooooooooooooo",
"..................................... ..........................",
"                                                                "
};
