/* XPM */
static char *result[] = {
/* columns rows colors chars-per-pixel */
"64 64 7 1 ",
"  c black",
". c gray33",
"X c #0066FF",
"o c #848484",
"O c gray66",
"+ c #CECDCD",
"@ c white",
/* pixels */
" ...............................................................",
" .+++++++++++++++++++++++++++++++++++++++++++++++++++++++++++++.",
" .oOOOOOOOOOOOOOOOOOOOOOOOOOOOOOOOOOOOOOOOOOOOOOOOOOOOOOOOOOOO+.",
" .oOOOOOOOOOOOOOOOOOOOOOOOOOOOOOOOOOOOOOOOOOOOOOOOOOOOOOOOOOOO+.",
" .oOOOOOOOOOOOOOOOOOOOOOOOOOOOOOOOOOOOOOOOOOOOOOOOOOOOOOOOOO+...",
" .oOOOOOOOOOOOOOOOOOOOOOOOOOOOOOOOOOOOOOOOOOOOOOOOOOOOOOOOOO+.  ",
"..oOOOOOOOOOOOOOOOooooooooooooooOOOOOOOOOOOOOOOOOOOOOOOOOOOO+. .",
"+++OOOOOOOOOOOOOOO+............oOOOOOOOOOOOOOOOOOOOOOOOOOOOO+. .",
"OOOOOOOOOOOOOOOOOO+. X   XXX X.oOOOOOOOOOOOOOOOOOOOOOOOOOOOO+. .",
"OOOOOOOOOOOOOOOOOO+. ........X...oooooooooooooooooOOOOOOOOOO+. .",
"OOOOOOOOOOOOOOOOOO+. .++++++.XXXX................oOOOOOOOOOO+. .",
"OOOOoooooooooooooo+. .oOOOO+.XXXXXXXX  XX XXX X .oOOOOOOOOOO+. .",
"OOOO+............... .oOOO+.XX@@@XX............ .oOOOOOOOOOO+. .",
"OOOO+.               .oOO+.XX@@X@@XX.+++++++++. .oOOOOOOOOOO+. .",
"oooo+. ...............oOO+.XX@XXX@XX.oOOOOOOO+.X.ooooooooooo+. .",
"...... .++++++++++++++oOO+.XX@@X@@XX.oOOOOOOO+. .............. .",
"       .oOOOOOOOOOOOOOOOOO+.XX@@@XX.oOOOOOOOO+.XX  X           .",
"........oOOOOOOOOOOoooOOOOO+.XX@XX.oOOOOOoooO+. ................",
"++++++++oOOOOOOOOO+...oOOOO+.XX@XX.oOOOOo...o+.X.+++++++++++++++",
"OOOOOOOOOOOOOOOOO+.XXX.oooo+.XX@XX.ooooo.XXX.+. .oOOOOOOOOOOOOOO",
"OOOOOOOOOOOOOOOO+.XXXXX......XX@XX......XXXXX..X.oOOOOOOOOOOOOOO",
"OOOOOOOOOOOOOOO+.XX@@@XXXXXXXX@@@XXXXXXXX@@@XX.X.oOOOOOOOOOOOOOO",
"OOOOOOOOOOOOOO+.XX@@X@@XXXXXX@@X@@XXXXXX@@X@@XXX.ooooooOOOOOOOOO",
"OOOOOOOOOOOOOO+.XX@XXX@@@@@@@@XXX@@@@@@@@XXX@XX.......oOOOOOOOOO",
"OOOOOOOOOOOOOO+.XX@@X@@XXXXXX@@X@@XXXXXX@@X@@XXXX  XX.oOOOOOOOOO",
"OOOOOOOOOOOOOOO+.XX@@@XXXXXXXX@@@XXXXXXXX@@@XX...... .oOOOOOOOOO",
"OOOOOOOOOOOOOOOO+.XX@XX......XX@XX......XX@XX.+++++. .oOOOOOOOOO",
"OOOOOOOOOOOOOO+...XX@XX...++.XX@XX.++++.XX@XX.oOOO+.X.oOOOOOOOOO",
"OOOOOOOOOOOOOO+.XXXX@XXXX.o+.XX@XX.oOO+.XX@XX.oOOO+. .oOOOOOOOOO",
"ooooooooooooooo.XXXX@XXXX.oo.XX@XX.oOO+.XX@XX.oOOO+. .oO+ooooooo",
"................XX@@@@@XX....XX@XX.oOO+.XX@XX.oOOO+. .oO+.......",
"       X  XX XXXXXXXXXXXXXXXXXX@XX.oOO+.XX@XX.oOOO+. .oO+.      ",
"......... ......XX@@@@@XX....XX@XX.oooo.XX@XX.oooo+. .oo+. .....",
"++++++++.X.+++++.XX@@@XX.+++.XX@XX......XX@XX....... ..... .++++",
"OOOOOOO+. .oOOOO+.XX@XX.+OO+.XX@XXXXXXXXXX@XXXX XXX  X     .oOOO",
"OOOOOOO+.X.oOOOOO+.XXX.+OOO+.XX@XX......XX@XX...............oOOO",
"OOOOOOO+.X.oOOOOOO+.X.+OOOO+.XX@XX.++...XX@XX...++++++++++++oOOO",
"OOOOOOO+. .oOOOOOOO+.+OOOOO+.XX@XX.o+.XXXX@XXXX.oOOOOOOOOOOOOOOO",
"OOOOOO++. .oOOOOOOOO+OOOOOO+.XX@XX.o+.XXXX@XXXX.ooooooooooooooOO",
"OOOOOO+.. .oOOOOOOOOOOOOOOO+.XX@XX.o+.XX@@@@@XX..............oOO",
"OOOOOO+.  .oOOOOOOOOOOOOOOO+.XX@XX.o+.XXXXXXXXXXXX  X  XX   .oOO",
"OOOOOO+. ..oOOOOOOOOOOOOO+...XX@XX.....X@@@@@XX............ .oOO",
"OOOOOO+. .ooOOOOOOOOOOOOO+.XXXX@XXXX.+.XX@@@XX.+++++++++++. .oOO",
"OOOOOO+. .oOOOOOOOOOOOOOO+.XXXX@XXXX.o+.XX@XX.oOOOOOOOOOO+. .oOO",
"OOOOOO+. .oOOOOOOOOOOOOOO+.XX@@@@@XX.oO+.XXX.oOOOOOOOOOOO+. .oOO",
"oooooo+. .oOOOOOOOOOOOOOO+.XXXXXXXXX.ooo+.X.oOOOOOOOOOOOO+. .ooo",
"........ .oOOOOOOOOOOOOOO+.XX@@@@@XX......X.oOOOOOOOOOOOO+. ....",
"         .oOOOOOOOOOOOOOOO+.XX@@@XXXXXXX XX.oOOOOOOOOOOOO+.     ",
"........ .oOOOOOOOOOOOOOOO+.XXX@XX..X.......oOOOOOOOOOOOO+......",
"+++++++. .oOOOOOOOOOOOOOOO+.X.XXX... .++++++oOOOOOOOOOOOO+++++++",
"OOOOOO+. .oOOOOOOOOOOOOOOO+.X..X.++.X.oOOOOOOOOOOOOOOOOOOOOOOOOO",
"OOOOOO+. .oooooooooooooooo+. .o.+O+.X.oOOOOOOOOOOOOOOOOOOOOOOOOO",
"OOOOOO+. ...................X.o+OO+.X.oOOOOOOOOOOOOOOOOOOOOOOOOO",
"OOOOOO+.             X    X X.oOOO+. .oOOOOOOOOOOOOOOOOOOOOOOOOO",
"OOOOOO+.......................oOOO+.X.oOOOOOOOOOOOOOOOOOOOOOOOOO",
"OOOOOO++++++++++++++++++++++++oOOO+. .oOOOOOOOOOOOOOOOOOOOOOOOOO",
"OOOOOOOOOOOOOOOOOOOOOOOOOOOOOOOOOO+. .ooOOOOOOOOOOOOOOOOOOOOOOOO",
"OOOOOOOOOOOOOOOOOOOOOOOOOOOOOOOOOO+. ..oOOOOOOOOOOOOOOOOOOOOOOOO",
"OOOOOOOOOOOOOOOOOOOOOOOOOOOOOOOOOO+.  .oOOOOOOOOOOOOOOOOOOOOOOOO",
"OOOOOOOOOOOOOOOOOOOOOOOOOOOOOOOOOO+.. .oOOOOOOOOOOOOOOOOOOOOOOOO",
"OOOOOOOOOOOOOOOOOOOOOOOOOOOOOOOOOO++. .oOOOOOOOOOOOOOOOOOOOOOOOO",
"ooooooooooooooooooooooooooooooooooo+. .ooooooooooooooooooooooooo",
"..................................... ..........................",
"                                                                "
};
