/* XPM */
static char *result[] = {
/* columns rows colors chars-per-pixel */
"64 64 6 1 ",
"  c black",
". c gray33",
"X c #800000",
"o c #848484",
"O c gray66",
"+ c #CECDCD",
/* pixels */
" ................................. ............................ ",
" .+++++++++++++++++++++++++++++++. .++++++++++++++++++++++++++. ",
" .oOOOOOOOOOOOOOOOOOOOOOOOOOOOOO+. .oOOOOOOOOOOOOOOOOOOOOOOOO+. ",
" .oOOOOOOOOOOOOOOOOOOOOOOOOOOOOO+. .oOOOOOOOOOOOOOOOOOOOOOOOO+. ",
" .oOOOOOOOOOOOOOOOOOOOOOOOOOOOO+. .oOOOOOXOOXOOOOOOOOOOOOOOOO+. ",
" .oOOOOOOOOOOOOOOOOOOOOOOOOOOO+. .oOOOOXOOXOXOOOOOOOOOOOOOOOO+. ",
" .oOOOOOOOOOOOOOOOOOOOOOOOOOO+. .oOOOOOOXOXOXOXOOOOOOOOOOOOOO+. ",
" .oOOOOOOOOOOOOOOOOOOOOOOOOO+. .oOOOOOOOXXOXOOXOOOOOOOOOOOOOO+. ",
" .oOOOOOOOOOOOOOOOOOOOOOOOO+. .oOOOOOOOOOXOOOOOOOOOOOOOOOOOOO+. ",
" .oOOOOOOOOOOOOOOOOOOOOOOOO+. .oOOOOOOOOOOOXXXOOOOOOOOOOOOOOO+. ",
" .oOOOOOOOOOOOOOOOOOOOOOOOO+. .oOOOOOOXXOOXXOXXOOOOOOOOOOOOOO+. ",
" .oOOOOOOOOOOOOOOOOOOOOOOOO+. .oOOOOOOXOOOOOOOXOOOOOOOOOOOOOO+. ",
" .oOOOOOOOOOOOOOOOOOOOOOOOOO+. .oOOOOOOXOXOOXXXOOOOOOOOOOOOOO+. ",
" .oOOOOOOOOOOOOOOOOOOOOOOOOOO+. .oOOOOOOOXXXXXOOOOOOOXOOOOOOO+. ",
" .oOOOOOOOOOOOOOOOOOOOOOOOOOOO+. .oOOOOOOOXXOXOOOOOOOXXOOOOOO+. ",
" .oOOOOOOOOOOOOOOOOOOOOOOOOOOOO+. .oOOOOOOOXOXOOOOOOOOXOOOOOO+. ",
" .oOOOOOOOOOOOOOOOOXOOXOOOOOOOOO+. .oOOOOOOOOXOOOOOOOOXOOOOOO+. ",
" .oOOOOOOOOOOOOOOOOXOOXOOOOOOOOO+. .oOOOOOOOOOOOOOOOOOXXOOOOO+. ",
" .oOOOOOOOOOOOOOOOOOOOXXOOOOOOOO+. .oOOOOOOOOOOOOOOOOOXXOOOOO+. ",
" .oOOOOOOOOOOOOOOOOOOOXOOOOOOOOO+. .oOOOOOOOOOOOOOOOOOOXOOOOO+. ",
" .oOOOOOOOOOOOOOXXXOOOXXXOOOOOO+. .oOOOOOOXOOOOOOXXXOOXXOOOOO+. ",
" .oOOOXXXXOOOXOOXXXOOOOXOOOOOO+. .oOOOOOOOXOOOOXOXOXOXOXOOOOO+. ",
" .oOOOXXOOXOOXXOXXXOOOOOOOOOO+. .oOOOOOOOOXOOOXXOOXXOXOXXOOOO+. ",
" .oOOOOXOOXOXOXOOXOOOOOOOOOO+. .oOOOOOOOOXXOOXXXOXOXOXXXOOOOO+. ",
" .oOOOOXOOXOXXXOOOOOOOOOOOO+. .oOOOOOOOOXOOXOXXOOXXXOOXOOOOOO+. ",
" .oOOOOXOXOOOOOOOOOOOOOOOOO+. .oOOOOOOOOXOOXOXOXOOOXOOOOOOOOO+. ",
" .oOOOOXXXOOOOOOOOOOOOOOOOO+. .oOOOOOOOOXOXXXXXOOOOXOOOOOOOOO+. ",
" .oOOOOOXOOOOOOOOOOOOOOOOOO+. .oOOOOOOOOOXOOOOOOOOOOOOOOOOOOO+. ",
" .oOOOOOXOOOOOOOOOOOOOOOOOOO+. .oOOOOOOOOOOOOOOOOOOOOOOOOOOOO+. ",
" .oOOOOOXOOOOOOOOOOOOOOOOOOOO+. .oOOOOOOOOOOOOOOOOOOOOOOOOOOO+. ",
" .oOOOOOXOOOOOOOOOOOOOOOOOOOOO+. .oOOOOOOOOOOOOOOOOOOOOOOOOOO+. ",
" .oOOOOOOOOOOOOOOOOOOOOOOOOOOOO+. .oOOOOOOOOOOOOOOOOOOOOOOOOO+. ",
" .oOOOOOOOOOOOOOOOOOOOOOOOOOOOOO+. .oOOOOOOOOOOOOOOOOOOOOOOOO+. ",
" .oOOOOOOOOOOOOOOOOOOOOOOOOOOOOO+. .oOOOOOOOOOOOOOOOOOOOOOOOO+. ",
" .oOOOOOOOOOOOOOOOOOOOOOOOOOOOOO+. .oOOOOOOOOOOOOOOXOOOOOOOOO+. ",
" .oOOOOOOOOOOOOOOOXOOXXXOOOOOOOO+. .oOOOOOOOOOOOOOOXOOOXOOOOO+. ",
" .oOOOOOOOOOOOOOOXOXOXXXXOOOOOO+. .oOOOOOOOOOOOOOOOXXOXXOOOOO+. ",
" .oOOOOOOOOOOOOOXXXXOOXOXOOOOO+. .oOOOOOOOOOOOOOXOOXXOXXOOOOO+. ",
" .oOOOOOOOOOOOOOXXOOOOXOOOOOO+. .oOOOOOOOOOOOOOOOOOOXOXOOOOOO+. ",
" .oOOOOOOOXXXXXOXXOXOOOXOOOO+. .oOOOOOOOOOOOOXXOOOOXXOOXOOOOO+. ",
" .oOOOOXXOXXOOXOOXXXOOOOOOO+. .oOOOOOOXOOOOOOXOOOXOXXXOXOOOOO+. ",
" .oOOOXXXXOXOXXOOOOOOOOOOOO+. .oOOOOOOOOOOXOOXXOOXOXXOOXOOOOO+. ",
" .oOOOXOOXOXXOOOOOOOOOOOOOO+. .oOOOOOOOXXOXXOOXOOXXOOOOXOOOOO+. ",
" .oOOOXOXXOOXOOOOOOOOOOOOOO+. .oOOOOOOOXOOXXXXXOOOOOOOOXOOOOO+. ",
" .oOOOXXXOOOXOOOOOOOOOOOOOOO+. .oOOOOOOOXOOXOOOOOOOOOOOOOOOOO+. ",
" .oOOOOOOOOOOXOOOOOOOOOOOOOOO+. .oOOOOOOXOOOOOOOOOOOOOOOOOOOO+. ",
" .oOOOOOOOOOOXOOOOOOOOOOOOOOOO+. .oOOOOOOOOOOOOOOOOOOOOOOOOOO+. ",
" .oOOOOOOOOOOXXOOOOOOOOOOOOOOOO+. .oOOOOOOOOOOOOOOOOOOOOOOOOO+. ",
" .oOOOOOOOOOOOXOOOOOOOOOOOOOOOOO+. .oOOOOOOOOOOOOOOOOOOOOOOOO+. ",
" .oOOOOOOOOOOOOOOOOOOOOOOOOOOOOO+. .oOOOOOOOOOOOOOOOOOOOOOOOO+. ",
" .oOOOOOOOOOOOOOOOOOOOOOOOOOOOOO+. .oOOOOOOOOOOOOOOOOOOOOOOOO+. ",
" .oOOOOOOOOOOOOOOOOOOOOOOOOOOOOO+. .oOOOOOOOOOOOOOOOOOOOOOOOO+. ",
" .oOOOOOOOOOOOOOOOOOOOOOOOOOOOO+. .oOOOOOOOOOOOOOOOOOOOOOOOOO+. ",
" .oOOOOOOOOOOOOOOOOOOOOOOOOOOO+. .oOOOOOOOOOOOOOOOOOOOOOOOOOO+. ",
" .oOOOOOOOOOOOOOOOOOOOOOOOOOO+. .oOOOOOOOOOOOOOOOOOOOOOOOOOOO+. ",
" .oOOOOOOOOOOOOOOOOOOOOOOOOO+. .oOOOOOOOOOOOOOOOOOOOOOOOOOOOO+. ",
" .oOOOOOOOOOOOOOOOOOOOOOOOO+. .oOOOOOOOOOOOOOOOOOOOOOOOOOOOOO+. ",
" .oOOOOOOOOOOOOOOOOOOOOOOOO+. .oOOOOOOOOOOOOOOOOOOOOOOOOOOOOO+. ",
" .oOOOOOOOOOOOOOOOOOOOOOOOO+. .oOOOOOOOOOOOOOOOOOOOOOOOOOOOOO+. ",
" .oOOOOOOOOOOOOOOOOOOOOOOOO+. .oOOOOOOOOOOOOOOOOOOOOOOOOOOOOO+. ",
" .oOOOOOOOOOOOOOOOOOOOOOOOOO+. .oOOOOOOOOOOOOOOOOOOOOOOOOOOOO+. ",
" .oOOOOOOOOOOOOOOOOOOOOOOOOOO+. .oOOOOOOOOOOOOOOOOOOOOOOOOOOO+. ",
" .oooooooooooooooooooooooooooo+. .oooooooooooooooooooooooooooo. ",
" ................................ ............................. "
};
