/* XPM */
static char *result[] = {
/* columns rows colors chars-per-pixel */
"64 64 7 1 ",
"  c black",
". c gray33",
"X c #800000",
"o c red",
"O c #848484",
"+ c gray66",
"@ c #CECDCD",
/* pixels */
" ....... ......................... .................... ........",
" .@@@@@. .@@@@@@@@@@@@@@@@@@@@@@@. .@@@@@@@@@@@@@@@@@@. .@@@@@@.",
" .O+++@. .O+++++++++++++++++++++@. .O++++++++++++++++@. .O++++@.",
" .O+++@. .O+++++++++++++++++++++@. .O++++++++++++++++@. .O++OO@.",
" .O+++@. .O++++++++++++++++++++@. .O+++++++++++++++++@. .O++@...",
" .O...@. .O+++++++++++++++++++@. .O++++++++++++++++++@. .O++@.  ",
"..O.o.@. .O++++++++++++++++++@. .O+++++++++++++++++++@. .O++@. .",
"@@O.o.@. .O+++++++++++++++++@. .O++++++++++++++++++++@. .O++@. .",
"+++.o.@. .O++++++++++++++++@. .O+++++++++++++++++++++@. .O++@. .",
"+++.o.@. .O++++++++++++++++@. .O+++++++++++++++++++++@. .O++@. .",
"+++.o.@. .O++++++++++++++++@. .O+++++++++++++++++++++@. .O++@. .",
"+++...@. .O++++++++++++++++@. .O+++++++++++++++++X+++@. .O++@. .",
"++++++@. .O+++++++++++++++++@. .O++++++++++++++++XX++@. .O++@. .",
"++++++@. .O++++++++++++++++++@. .O++++++++++++++++X++@. .O++@. .",
"OOOOOO@. .O++++++++++++++X++X+@. .O+++++++++++++++X++@. .O++@. .",
"........ .O++++++++++++++X++X++@. .O++++++++++++++XX+@. .O++@. .",
"         .O+++++++++++++++++XX++@. .O+++++++++++++XX+@. .O++@.  ",
"........ .O+++++++++++++++++X+++@. .O++++++++++++++X+@. .O++@...",
"@@@@@@@. .O+++++++++++XXX+++XXX+@. .O+++++++++++++XX+@. .O++@@@@",
"++++++@. .O+XXXX+++X++XXX++++X++@. .O++++++++++++X+X+@. .O++++++",
"+++...@. .O+XX++X++XX+XXX++++++@. .O+++++++++XXX+X+XX@. .O...+++",
"+++.o.@. .O++X++X+X+X++X++++++@. .O++++++++++X+X+XXX+@. .O.o.+++",
"+++.o.@. .O++X++X+XXX++++++++@. .O+++X++++X+++XX++X++@. .O.o.+++",
"+++.o.@. .O++X+X++++++++++++@. .O++++X+++XX++X+X+++++@. .O.o.+++",
"+++.o.@. .O++XXX+++++++++++@. .O+++++X++XXX++XXX+++++@. .O.o.+++",
"+++.o.@. .O+++X++++++++++++@. .O++++XX++XX+++++++++++@. .O.o.+++",
"+++...@. .O+++X++++++++++++@. .O+++X++X+X+X++++++++++@. .O...+++",
"++++++@. .O+++X++++++++++++@. .O+++X++X+XX+++++++++++@. .O++++++",
"++++++@. .O+++X+++++++++++++@. .O++X+XXX+++++++++++++@. .O++++++",
"OOOOOO@. .O++++++++++++++++++@. .O++X++++++++++++++++@. .OOOOOOO",
"........ .O+++++++++++++++++++@. .O++++++++++++++++++@. ........",
"         .O++++++++++++++++++++@. .O+++++++++++++++++@.         ",
"........ .O+++++++++++++++XXX+++@. .O+++++++++++X++++@. ........",
"@@@@@@@. .O++++++++++++X++XXXX++@. .O+++++++++++X+++X@. .@@@@@@@",
"++++++@. .O+++++++++++X+X++X+X++@. .O+++++++++++XX+XX@. .O++++++",
"++++++@. .O++++++++++XXXX++X++++@. .O++++++++X++XX+XX@. .O++++++",
"+++...@. .O++++++++++XX+++++X++@. .O+++++++++++++X+X+@. .O...+++",
"+++.o.@. .O+++++XXXXXXX+X+++++@. .O+++++++++++++XX++X@. .O.o.+++",
"+++.o.@. .O++XX+XX++X+XXX++++@. .O++++++++++++X+XXX++@. .O.o.+++",
"+++.o.@. .O+XXXX+X+XX+++++++@. .O+++++++++++++X+XX+++@. .O.o.+++",
"+++.o.@. .O+X++X+XX++++++++@. .O+++++++++++XX+XX+++++@. .O.o.+++",
"+++.o.@. .O+X+XX++X++++++++@. .O++++X+++X++X+++++++++@. .O.o.+++",
"+++...@. .O+XXX+++X++++++++@. .O++++++++XX+XX++++++++@. .O...+++",
"++++++@. .O++++++++X+++++++@. .O+++++XX+XXX+X++++++++@. .O++++++",
"++++++@. .O++++++++X++++++++@. .O++++X+++X+XX++++++++@. .O++++++",
"OOOOOO@. .O++++++++XX++++++++@. .O++++X++++++++++++++@. .OOOOOOO",
"........ .O+++++++++X+++++++++@. .O+++X++++++++++++++@. ........",
"         .O++++++++++++++++++++@. .O+++++++++++++++++@.         ",
"........ .O+++++++++++++++++++++@. .O++++++++++++++++@. ........",
"@@@@@@@. .O+++++++++++++++++++++@. .O++++++++++++++++@. .@@@@@@@",
"++++++@. .O+++++++++++++++++++++@. .O++++++++++++++++@. .O++++++",
"++++++@. .O+++++++++++++++++++++@. .O++++++++++++++++@. .O++++++",
"+++...@. .O++++++++++++++++++++@. .O+++++++++++++++++@. .O...+++",
"+++.o.@. .O+++++++++++++++++++@. .O++++++++++++++++++@. .O.o.+++",
"+++.o.@. .O++++++++++++++++++@. .O+++++++++++++++++++@. .O.o.+++",
"+++.o.@. .O+++++++++++++++++@. .O++++++++++++++++++++@. .O.o.+++",
"+++.o.@. .O++++++++++++++++@. .O+++++++++++++++++++++@. .O.o.+++",
"+++.o.@. .O++++++++++++++++@. .O+++++++++++++++++++++@. .O.o.+++",
"+++...@. .O++++++++++++++++@. .O+++++++++++++++++++++@. .O...+++",
"++++++@. .O++++++++++++++++@. .O+++++++++++++++++++++@. .O++++++",
"++++++@. .O+++++++++++++++++@. .O++++++++++++++++++++@. .O++++++",
"OOOOOO@. .O++++++++++++++++++@. .O+++++++++++++++++++@. .OOOOOOO",
"........ .OOOOOOOOOOOOOOOOOOOO@. .OOOOOOOOOOOOOOOOOOO@. ........",
"         ........................ .....................         "
};
