/* XPM */
static char *result[] = {
/* columns rows colors chars-per-pixel */
"64 64 6 1 ",
"  c gray33",
". c #800000",
"X c #848484",
"o c gray66",
"O c #CECDCD",
"+ c white",
/* pixels */
".                                                               ",
". OOOOOOOOOOOOOOOOOOOOOOOOOOOOOOOOOOOOOOOOOOOOOOOOOOOOOOOOOOOOO ",
". XoooooooooooooooooooooooooooooooooooooooooooooooooooooooooooO ",
". XoooooooooooooooooooooooooooooooooooooooooooooooooooooooooooO ",
". XoooooooooooooooooooooooooooooooooooooooooooooooooooooooooO   ",
". XoooooooooooooooooooooooooooooooooooooooooooooooooooooooooO ..",
"  XoooooooooooooooXXXXXXXXXXXXXXooooooooooooooooooooooooooooO . ",
"OOOoooooooooooooooO            XooooooooooooooooooooooooooooO . ",
"ooooooooooooooooooO .......... XooooooooooooooooooooooooooooO . ",
"ooooooooooooooooooO .        . XXXXXXXXXXXXXXXXXXXooooooooooO . ",
"ooooooooooooooooooO . OOOOOO .                   XooooooooooO . ",
"ooooXXXXXXXXXXXXXXO . XooooO ................... XooooooooooO . ",
"ooooO               . XooooO                   . XooooooooooO . ",
"ooooO ............... XooooOOOOOOOOOOOOOOOOOOO . XooooooooooO . ",
"XXXXO .               XXoooooooooooooooooooooO . XXXXXXXXXXXO . ",
"      . OOOOOOOOOOOOOOX XooooooooooooooooooooO .              . ",
"....... XooooooooooooO . XoooooooooooooXoooooO ................ ",
"        XoooooooooooO ... XoooooooooooO XooooO .                ",
"OOOOOOOOXooooooooooO ..... XoooooooooO . XoooO . OOOOOOOOOOOOOOO",
"ooooooooooooooooooO ..+++.. XoooooooO ... XooO . Xoooooooooooooo",
"oooooooooooooooooO ..++.++.. XoooooO ..+.. XoO . Xoooooooooooooo",
"oooooooooooooooooO ..+...+.. XooooO ..+++.. XO . Xoooooooooooooo",
"oooooooooooooooooO ..++.++.. XooooO ..+++.. XO . XXXXXXooooooooo",
"ooooooooooooooXXXO ..+++++.. XXXXX ..+...+.. O .      Xooooooooo",
"oooooooooooooX    ..+.....+..     ..+.....+..  ...... Xooooooooo",
"ooooooooooooX .....+...+...+.......+..   ..+..      . Xooooooooo",
"oooooooooooX .....+...+++...+.....+.. OOO ..+..  OO . Xooooooooo",
"ooooooooooX ..++++...+.+.+...+++++.. XoooO ..+... O . Xooooooooo",
"oooooooooX ..++.++..+.....+..++.++.. XooooO ..++..  . Xooooooooo",
"XXXXXXXXXX ..+...+.+++...+++.+...+.. XooooO ..+++.... XoOXXXXXXX",
"           ..++.++..+.....+..++.++.. XooooO ..++..  . XoO       ",
"..............++++...+........+++.. XooooO ..+... O . XoO ......",
"         .   .....+...+.+..  ..... XXXXXX ..+... XO . XXO .     ",
"OOOOOOOO . OO .....+...++.. O ...        ..+..      .     . OOOO",
"oooooooO . XoO    ..+.+++.. XO ...........+................ Xooo",
"oooooooO . XooOOOO ..+..... XO         ..+..                Xooo",
"oooooooO . XooooooO ..+.... XOOOOOOOO ..+.. OOOOOOOOOOOOOOOOXooo",
"oooooooO . XoooooooO ..+..  XooooooO ..+.. Xoooooooooooooooooooo",
"ooooooOO . XooooooooO ..+.. XoooooO ..+.. XXXXXXXXXXXXXXXXXXXXoo",
"ooooooO  . XoooooooooO ..+.. XXXXX ..+..                     Xoo",
"ooooooO .. XooooooooooO ..+..     ..+.. O .................. Xoo",
"ooooooO .  XoooooooooooO ..+.......+.. OO .                . Xoo",
"ooooooO . XXooooooooooooO ..+.....+.. OoO . OOOOOOOOOOOOOO . Xoo",
"ooooooO . XooooooooooooooO ..+++++.. XooO . XooooooooooooO . Xoo",
"ooooooO . XooooooooooooooO ..++.++.. XooO . XooooooooooooO . Xoo",
"XXXXXXO . XooooooooooooooO ..+...+.. XXXO . XooooooooooooO . XXX",
"        . XooooooooooooooO ..++.++..      . XooooooooooooO .    ",
"......... XooooooooooooooOO ..+++.......... XooooooooooooO .....",
"        . XoooooooooooooooO ......  .       XooooooooooooO      ",
"OOOOOOO . XoooooooooooooooO . ... O . OOOOOOXooooooooooooOOOOOOO",
"ooooooO . XoooooooooooooooO .    OO . Xooooooooooooooooooooooooo",
"ooooooO . XXXXXXXXXXXXXXXXO . XOOoO . Xooooooooooooooooooooooooo",
"ooooooO .                   . XoooO . Xooooooooooooooooooooooooo",
"ooooooO ..................... XoooO . Xooooooooooooooooooooooooo",
"ooooooO                       XoooO . Xooooooooooooooooooooooooo",
"ooooooOOOOOOOOOOOOOOOOOOOOOOOOXoooO . Xooooooooooooooooooooooooo",
"ooooooooooooooooooooooooooooooooooO . XXoooooooooooooooooooooooo",
"ooooooooooooooooooooooooooooooooooO .  Xoooooooooooooooooooooooo",
"ooooooooooooooooooooooooooooooooooO .. Xoooooooooooooooooooooooo",
"ooooooooooooooooooooooooooooooooooO  . Xoooooooooooooooooooooooo",
"ooooooooooooooooooooooooooooooooooOO . Xoooooooooooooooooooooooo",
"XXXXXXXXXXXXXXXXXXXXXXXXXXXXXXXXXXXO . XXXXXXXXXXXXXXXXXXXXXXXXX",
"                                     .                          ",
"................................................................"
};
