/* XPM */
static char *result[] = {
/* columns rows colors chars-per-pixel */
"64 64 9 1 ",
"  c black",
". c gray33",
"X c #800000",
"o c red",
"O c #33FF00",
"+ c #E8CA09",
"@ c #848484",
"# c gray66",
"$ c #CECDCD",
/* pixels */
" ................... .........    ......... ....................",
" .$$$$$$$$$$$$$$$$$. .@$$$$$$.    .@$$$$$$. .@$$$$$$$$$$$$$$$$$.",
" .@###############$. .@#####$.    .@#####$. .@################$.",
" .@@@@@@@@@@@@@@@#$. .@#####$.    .@#####$. .@##############@@$.",
" ...............@#$. .@#...#$.    .@#...#$. .@######XXX#####$...",
"               .@#$. .@#.o.#$.    .@#.o.#$. .@#####XX#X#####$.  ",
".............. .@#$. .@#.o.#$.    .@#.o.#$. .@#X######X#####$. .",
"$$$$$$$$$$$$$. .@@$. .@#.o.#$.    .@#.o.#$. .@#X##X##X######$. .",
"#########$.... ..... .@#.o.#$.    .@#.o.#$. .@#X##X##XXXX###$. .",
"#########$.          .@#.o.#$.    .@#.o.#$. .@#XXXX####X####$. .",
"#########$. ........ .@#...#$.    .@#...#$. .@####X####X####$. .",
"#########$. .@$$$$$. .@#####$.    .@#####$. .@#######$@@@@@@$. .",
"#########$. .@####$. .@#####$.    .@#####$. .@#######$........ .",
"#########$. .@####$. .@@@@@@$.    .@@@@@@$. .@#######$.        .",
"@@@@@@@@@$. .@####$. .........    ......... .@#######$. ...... .",
"........... .@####$.                        .@#######$. .$$$$. .",
"            .@####$. .........    ......... .@##@@@@@$. .@@@$.  ",
".............@####$. .@$$$$$$.    .@$$$$$$. .@##$...... ........",
"$$$$$$$$$$$$$$####$. .@#####$.    .@#####$. .@@@$.           .$$",
"##########XXXX####$. .@#####$.    .@#####$. ......           .@#",
"#######XXXX#X#####$. .@#...#$.    .@#...#$.                  .@#",
"#####XXXX#########$. .@#.o.#$.    .@#.o.#$. .....            .@#",
"###XXXX##@@@@@@@@@$. .@#.o.#$.    .@#.o.#$. .$$$.     O O O  .@#",
"#XXXX#X##$........$. .@#.o.#$.    .@#.o.#$. .@$$.     O O O  .@#",
"#XXXX#X##$.      .$. .@#.o.#$.    .@#.o.#$. .@#$.            .@#",
"#X#XX####$. .... .$. .@#.o.#$.    .@#.o.#$. .@#$.  O  OOOOO  .@#",
"#X#X##X##$. .$$. .$. .@#...#$.    .@#...#$. .@#$.  O     OO  .@#",
"###X#####$. .@$. .$. .@#####$.    .@#####$. .@#$.   O OO OO  .@#",
"###X#####$. .@$. .$. .@#####$.    .@#####$. .@#$.     OOOO   .@#",
"@@@@@@@@@$. .@$. .$. .@@@@@@$.    .@@@@@@$. .@#$.            .@@",
"........... .@$. .$. .........    ......... .@#$.            ...",
"            .@$. .$.                        .@#$.               ",
".............@$. .$. .........    ......... .@#$................",
"$$$$$$$$$$$$$$$. .$. .@$$$$$$.    .@$$$$$$. .@#$$$$$$$$$$$$$$$$$",
"##############$. .$. .@#####$.    .@#####$. .@##################",
"##############$. .$. .@#####$.    .@#####$. .@##########++######",
"##############$. .$. .@#...#$.    .@#...#$. .@######+###+++#####",
"##############$. ... .@#.o.#$.    .@#.o.#$. .@#######++++#######",
"#####$@@@@@@##$.     .@#.o.#$.    .@#.o.#$. .@#######++++#######",
"#####$.....@##$..... .@#.o.#$.    .@#.o.#$. .@########++########",
"#####$.   .@##$$$$$. .@#.o.#$.    .@#.o.#$. .@##################",
"#####$. . .@######$. .@#.o.#$.    .@#.o.#$. .@@@@@@@@@@@@@@#####",
"#####$.   .@######$. .@#...#$.    .@#...#$. ..............@#####",
"#####$.. ..@######$. .@#####$.    .@#####$.              .@#####",
"#####$$. .@@######$. .@#####$.    .@#####$. ............ .@#####",
"@@@@@@$. .@@@#$@@@$. .@@@@@@$.    .@@@@@@$. .$$$$$$$$$$. .@@@@@@",
"........ ..@##$..... .........    ......... .@########$. .......",
"          .@@@$.                            .@########$.        ",
"......... ...... ... .........    ......... .@########$. .......",
"$$$$$$$$.        .$. .@$$$$$$.    .@$$$$$$. .@########$. .$$$$$$",
"#######$... ......$. .@#####$.    .@#####$. .@########$. .@#####",
"#######$$$. .$$$$$$. .@#####$.    .@#####$. .@#####@@@$. .@#####",
"#########$. .....@$. .@#...#$.    .@#...#$. .@#####$.... .@#####",
"#########$. .   .@$. .@#.o.#$.    .@#.o.#$. .@#####$.    .@#####",
"#$@@@@@@#$.   . .@$. .@#.o.#$.    .@#.o.#$. .@@@@@@$. ....@#####",
"#$.....@@$. .   .@$. .@#.o.#$.    .@#.o.#$. ......... .$$$@#####",
"#$.   ..... .....@$. .@#.o.#$.    .@#.o.#$.           .@########",
"#$. .       .@$$$$$. .@#.o.#$.    .@#.o.#$. ...........@########",
"#$.   .......@####$. .@#...#$.    .@#...#$. .$$$$$$$$$$@########",
"#$.....@$$$$$$####$. .@#####$.    .@#####$. .@##################",
"#$$$$$$@##########$. .@#####$.    .@#####$. .@##################",
"@@@@@@@@@@@@@@@@@@$. .@@@@@@$.    .@@@@@@$. .@@@@@@@@@@@@@@@@@@@",
".................... .........    ......... ....................",
"                                                                "
};
