/* XPM */
static char *result[] = {
/* columns rows colors chars-per-pixel */
"64 64 5 1 ",
"  c black",
". c gray33",
"X c #848484",
"o c gray66",
"O c #CECDCD",
/* pixels */
" ...............................................................",
" .OOOOOOOOOOOOOOOOOOOOOOOOOOOOOOOOOOOOOOOOOOOOOOOOOOOOOOOOOOOOO.",
" .XoooooooooooooooooooooooooooooooooooooooooooooooooooooooooooO.",
" .XooooooooooooooooooooooooooooooooooooXXXXXXXXXXXXXXXXXXXXoooO.",
" .XooooooooooooooooooooooooooooooooooooO..................XoO...",
" .XooooooooooooooooooooooooooooooooooooO.            .   .XoO.  ",
"..XoooooooooooooooXXXXXXXXXXXXXXoooooooO. ..........   . .XoO. .",
"OOOoooooooooooooooO............XoooooooO. .OOOOOOOO...   .XoO. .",
"ooooooooooooooooooO.          .XoooooooO. .XooooooOOO.....XoO. .",
"ooooooooooooooooooO. ........ .XXXXXXXXX. .XXXXXXXooOOOOOOOoO. .",
"ooooooooooooooooooO. .OOOOOO. ........... .......XooooooooooO. .",
"ooooXXXXXXXXXXXXXXO. .XooooO.                   .XooooooooooO. .",
"ooooO............... .XooooO....... ........... .XooooooooooO. .",
"ooooO.               .XooooOOOOOOO. .OOOOOOOOO. .XooooooooooO. .",
"XXXXO. ...............XooooooooooO. .XoooooooO. .XXXXXXXXXXXO. .",
"...... .OOOOOOOOOOOOOOXooooooooooO. .XoooooooO. .............. .",
"       .XooooooooooooooooooooooooO. .XoooooooO.                 ",
"........XooooooooooooooooooooooooO. .XoooooooO. ................",
"OOOOOOOOXooooooooooooooooooooooooO. .XoooooooO. .OOOOOOOOOOOOOOO",
"oooooooooooooooooooooooXXXXXXXoooO. .XoooooooO. .Xoooooooooooooo",
"oooooooooooooooooooooooO.....XXXXO. .XXXoooooO. .Xoooooooooooooo",
"oooooooooooooooooooooooO.   ....... ...XoooooO. .Xoooooooooooooo",
"oooooooooooooooooooooooO. .           .XoooooO. .XXXXXXooooooooo",
"oooooooooooooooooooooooO.   ......... .XXooooO. ......Xooooooooo",
"oooooooooooooooooooooooO.....OOOOOO.. ..XooooO.      .Xooooooooo",
"oooooooooooooooooooooooOOOOOOOoooOO.   .XooooO...... .Xooooooooo",
"ooooooooooooooooooooooooooooooooooO. . .XooooOOOOOO. .Xooooooooo",
"ooooooooooooooooooooooooooooooooooO.   .XoooooooooO. .Xooooooooo",
"ooooooooooooooooooooooooooooooooooO.....XoooooooooO. .Xooooooooo",
"XXXXXXXXXXXXXXXXXXXXXXXXXXXXXXXXXXOOOOOOXoooooooooO. .XoOXXXXXXX",
".................................XooooooooooooooooO. .XoO.......",
"                                .XooooooooooooooooO. .XoO.      ",
"......... ..................... .XXXXXXXXXXXXXXXXXO. .XXO. .....",
"OOOOOOOO. .OOOOOOOOOOOOOOOOOOO. .................... ..... .OOOO",
"oooooooO. .XoooooooooooooooooO.                            .Xooo",
"oooooooO. .XoooooooooooooooooO..............................Xooo",
"oooooooO. .XoooooooooooooooooOOOOOOOOOOOOOOOOOOOOOOOOOOOOOOOXooo",
"oooooooO. .Xoooooooooooooooooooooooooooooooooooooooooooooooooooo",
"ooooooOO. .XoooXXXXXXXooooooooooooooooooXXXXXXXXXXXXXXXXXXXXXXoo",
"ooooooO.. .XoooO.....XooooooooooooooooooO....................Xoo",
"ooooooO.  .XoooO.   .XooooooooooooooooooO.                  .Xoo",
"ooooooO. ..XoooO. . .XooooooooooooooooooO. ................ .Xoo",
"ooooooO. .XXoooO.   .XooooooooooooooooooO. .OOOOOOOOOOOOOO. .Xoo",
"ooooooO. .XooooO.. ..XooooooooooooooooooO. .XooooooooooooO. .Xoo",
"ooooooO. .XooooOO. .XXooooooooooooooooooO. .XooooooooooooO. .Xoo",
"XXXXXXO. .XoooooO. .XoooooXXXXXXXXXXXXXXO. .XooooooooooooO. .XXX",
"........ .XoooooO. .XoooooO............... .XooooooooooooO. ....",
"         .XoooooO. .XoooooO.               .XooooooooooooO.     ",
"........ .XoooooO. .XoooooO. ....... .......XooooooooooooO... ..",
"OOOOOOO. .XoooooO. .XoooooO. .OOOOO. .OOOOOOXooooooooooooOOO. .O",
"ooooooO. .XoooooO. .XoooooO. .XoooO. .XooooooooooooooooooooO. .X",
"ooooooO. .XXXXXXX. .XXXXXXO. .XoooO. .XooooooooooooooooooooO. .X",
"ooooooO. ......... ......... .XoooO. .XoooooooooooooooooooOO. .X",
"ooooooO.                     .XoooO. .XoooooooooooXXXXXXXoO.. .X",
"ooooooO.......................XoooO. .XoooooooooooO.....XXO.  .X",
"ooooooOOOOOOOOOOOOOOOOOOOOOOOOXoooO. .XoooooooooooO.   ..... ..X",
"ooooooooooooooooooooooooooooooooooO. .XXooooooooooO. .       .XX",
"ooooooooooooooooooooooooooooooooooO. ..XooooooooooO.   .......Xo",
"ooooooooooooooooooooooooooooooooooO.  .XooooooooooO.....OOOOOOXo",
"ooooooooooooooooooooooooooooooooooO.. .XooooooooooOOOOOOOooooooo",
"ooooooooooooooooooooooooooooooooooOO. .Xoooooooooooooooooooooooo",
"XXXXXXXXXXXXXXXXXXXXXXXXXXXXXXXXXXXO. .XXXXXXXXXXXXXXXXXXXXXXXXX",
"..................................... ..........................",
"                                                                "
};
