/* XPM */
static char *result[] = {
/* columns rows colors chars-per-pixel */
"64 64 7 1 ",
"  c black",
". c gray33",
"X c #0066FF",
"o c #848484",
"O c gray66",
"+ c #CECDCD",
"@ c white",
/* pixels */
" ...............................................................",
" .+++++++++++++++++++++++++++++++++++++++++++++++++++++++++++++.",
" .oOOOOOOOOOOOOOOOOOOOOOOOOOOOOOOOOOOOOOOOOOOOOOOOOOOOOOOOOOOO+.",
" .oOOOOOOOOOOOOOOOOOO+ooooooooooooooooooooooOOOOOOOOOOOOOOOOOO+.",
" .oOOOOOOOOOOOOOOOOOO+.....................oOOOOOOOOOOOOOOOO+...",
" .oOOOOOOOOOOOOOOOOOO+.                   .oOOOOOOOOOOOOOOOO+.  ",
"..oOOOOOOOOOOOOOOOoooo. ................. .oOOOOOOOOOOOOOOOO+. .",
"+++OOOOOOOOOOOOOOO+.... .+++++++++++++++. .oOOOOOOOOOOOOOOOO+. .",
"oOOOOOOOOOOOOOOOOO+.    .+OOOOoooOOOOOO+. .oOOOOOOOOOOOOOOOO+. .",
"oOOOOOOOOOOOOOOOOO+. ....+OOO+...oOOOOO+. .oooooooOOOOOOOOOO+. .",
"oOOOOOOOOOOOOOOOOO+. .++++OO+.XXX.oOOOO+. .......oOOOOOOOOOO+. .",
"oOOOoooooooooooooo+. .oOOOO+.XXXXX.oOOO+.       .oOOOOOOOOOO+. .",
"oOOO+............... .oOOO+.XX@@@XX.oOO+....... .oOOOOOOOOOO+. .",
"oOOO+.               .oOO+.XX@@X@@XX.oO+++++++. .oOOOOOOOOOO+. .",
"oooo+. ...............oOO+.XX@XXX@XX.oOOOOOOO+. .ooooooooooo+. .",
"...... .++++++++++++++oOO+.XX@@X@@XX.oOOOOOOO+. .............. .",
"       .oOOOOOOOOOOOOOOOOO+.XX@@@XX.oOOOOOOOO+.                 ",
"........oOOOOOOOOOOoooOOOOO+.XX@XX.oOOOOOoooO+.......... .......",
"++++++++oOOOOOOOOO+...oOOOO+.XX@XX.oOOOOo...o++++++++++. .++++++",
"OOOOOOOOOOOOOOOOO+.XXX.oooo+.XX@XX.ooooo.XXX.oOOOOOOOO+. .oOOOOO",
"OOOOOOOOOOOOOOOO+.XXXXX......XX@XX......XXXXX.oOOOOOOO+. .oOOOOO",
"OOOOOO+ooooooOO+.XX@@@XXXXXXXX@@@XXXXXXXX@@@XX.oOOOOOO+. .oOOOOO",
"OOOOOO+.....oO+.XX@@X@@XXXXXX@@X@@XXXXXX@@X@@XX.oO+oooo. .oOOOOO",
"OOOOOO+.   .oO+.XX@XXX@@@@@@@@XXX@@@@@@@@XXX@XX.oO+..... .oOOOOO",
"OOOOOO+. . .oO+.XX@@X@@XXXXXX@@X@@XXXXXX@@X@@XX.oO+.     .oOOOOO",
"OOOOOO+.   .oOO+.XX@@@XXXXXXXX@@@XXXXXXXX@@@XX.oOO+. .....oOOOOO",
"OOOOOO+.. ..oOOO+.XX@XX......XX@XX......XX@XX.oOOO+. .o++++OOOOO",
"OOOOOO++. .ooO+...XX@XX...++.XX@XX.++++.XX@XX.oOOO+. .oOOOOOOOOO",
"OOOOOOO+. .oOO+.XXXX@XXXX.o+.XX@XX.oOO+.XX@XX.oOOO+. .oOOOOOOOOO",
"oooooooo. .oOO+.XXXX@XXXX.o+.XX@XX.oOO+.XX@XX.oOOO+. .oO+ooooooo",
"......... .oOO+.XX@@@@@XX.o+.XX@XX.oOO+.XX@XX.oOOO+. .oO+.......",
"          .oOO+.XXXXXXXXX.o+.XX@XX.oOO+.XX@XX.oOOO+. .oO+.      ",
"......... .oOO+.XX@@@@@XX.o+.XX@XX.oOO+.XX@XX.oOOO+. .oo+. .....",
"++++++++. .oOO++.XX@@@XX.+++.XX@XX.oOO+.XX@XX.oOOO+. ..... .++++",
"OOOOOOO+. .oOOOO+.XX@XX.+OO+.XX@XX.oOO+.XX@XX.oOOO+.       .oOOO",
"OOOOOOO+. .oOOOOO+.XXX.+OOO+.XX@XX.o+++.XX@XX.oooO+..... ...oOOO",
"OOOOOOO+. .oOOOOOO+.X.+OOOO+.XX@XX.o+...XX@XX...oO+++++. .++oOOO",
"OOOOOOO+. .oOOOOOOO+.+OOOOO+.XX@XX.o+.XXXX@XXXX.oOOOOO+. .oOOOOO",
"OOOOOO++. .oooooooOO+OOOOOO+.XX@XX.o+.XXXX@XXXX.oO+oooo. .ooooOO",
"OOOOOO+.. .......oOOOOOOOOO+.XX@XX.o+.XX@@@@@XX.oO+..... ....oOO",
"OOOOOO+.        .oOOOOOOOOO+.XX@XX.o+.XXXXXXXXX.oO+.        .oOO",
"OOOOOO+. ...... .oOOOOOOO+...XX@XX.....X@@@@@XX.oO+. ...... .oOO",
"OOOOOO+. .o+++. .oOOOOOOO+.XXXX@XXXX.+.XX@@@XX.oOO+. .++++. .oOO",
"OOOOOO+. .oOO+. .oooooooO+.XXXX@XXXX.o+.XX@XX.oOOO+. .oOO+. .oOO",
"OOOOOO+. .oOO+. .o.....oO+.XX@@@@@XX.oO+.XXX.oOOOO+. .oOO+. .oOO",
"oooooo+. .oOO+. ...   .oO+.XXXXXXXXX.oOO+.X.oOOOOO+. .oOO+. .ooo",
"........ .oOO+.     . .oO+.XX@@@@@XX.oOOO+.oOOOOO++. .oOO+. ....",
"         .oOO+.....   .oOO+.XX@@@XX.oOOOOOoOOOOOO+.. .oOO+.     ",
"........ .oOO+++++.....oOOO+.XX@XX.oOOOOOOOOOOOOO+.  .oOO+......",
"+++++++. .oOOOOOO++++++oOOOO+.XXX.oOOOOOOOOOOOOOO+. ..oOO+++++++",
"OOOOOO+. .oOOOOOOOOOOOOOOOOOO+.X.oOOOOOOOOOOOOOOO+. .ooOOOOOOOOO",
"OOOOOO+. .oooooooooooooooooooo+.oOoooooooooooooooo. .oOOOOOOOOOO",
"OOOOOO+. ....................oO+OO+................ .oOOOOOOOOOO",
"OOOOOO+.                    .oOOOO+.                .oOOOOOOOOOO",
"OOOOOO+.................... .ooooo+. ................oOOOOOOOOOO",
"OOOOOO++++++++++++++++++++. ........ .o++++++++++++++oOOOOOOOOOO",
"OOOOOOOOOOOOOOOOOOOOOOOOO+.          .ooOOOOOOOOOOOOOOOOOOOOOOOO",
"OOOOOOOOOOOOOOOOOOOOOOOOO+.......... ..oOOOOOOOOOOOOOOOOOOOOOOOO",
"OOOOOOOOOOOOOOOOOOOOOOOOO++++++++++.  .oOOOOOOOOOOOOOOOOOOOOOOOO",
"OOOOOOOOOOOOOOOOOOOOOOOOOOOOOOOOOO+.. .oOOOOOOOOOOOOOOOOOOOOOOOO",
"OOOOOOOOOOOOOOOOOOOOOOOOOOOOOOOOOO++. .oOOOOOOOOOOOOOOOOOOOOOOOO",
"ooooooooooooooooooooooooooooooooooo+. .ooooooooooooooooooooooooo",
"..................................... ..........................",
"                                                                "
};
