/* XPM */
static char *result[] = {
/* columns rows colors chars-per-pixel */
"64 64 7 1 ",
"  c black",
". c gray33",
"X c #4DAC73",
"o c #848484",
"O c gray66",
"+ c #CECDCD",
"@ c white",
/* pixels */
" ...............................................................",
" .+++++++++++++++++++++++++++++++++++++++++++++++++++++++++++++.",
" .oOOOOOOOOOOOOOOOOOOOOOOOOOOOOOOOOOOOOOOOOOOOOOOOOOOOOOOOOOOO+.",
" .oOOOOOOOOOOOOOOOOOOOOOOOOOOOOOOOOOOOOOOOOOOOOOOOOOOOOOOOOOOO+.",
" .oOOOOOOOOOOOOOOOOOOOOOOOOOOOOOOOOOOOOOOOOOOOOOOOOOOOOOOOOO+...",
" .oOOOOOOOOOOOOOOOOOOOOOOOOOOOOOOOOOOOOOOOOOOOOOOOOOOOOOOOOO+.  ",
"..oOOOOOOOooooooooooooooooooooooOOOOOOOOOOOOOOOOOOOOOOOOOOOO+. .",
"+++OOOOOOO+....................oOOOOOOOOOOOOOOOOOOOOOOOOOOOO+. .",
"OOOOOOOOOO+.                  .oOOOOOOOOOOOOOOOOOOOOOOOOOOOO+. .",
"OOOOOOOOOO+. ................ .oooooooooooooooooooOOOOOOOOOO+. .",
"OOOOOOOOOO+. .o+++++++++++++. ...................oOOOOOOOOOO+. .",
"OOOOoooooo+. .oOOOOOOOOOOOO+.                   .oOOOOOOOOOO+. .",
"OOOO+....... .oOOOOOoooOOOO+................... .oOOOOOOOOOO+. .",
"OOOO+.       .oOOOO+...oOOO+++++++++++++++++++. .oOOOOOOOOOO+. .",
"oooo+. .......oOOO+.XXX.oOOOOOOOOOOOOOOOOOOOO+. .ooooooooooo+. .",
"...... .++++++oOO+.XXXXX.oOOOOOOOOOOOOOOOOOOO+. .............. .",
"       .oOOOOOOO+.XX@@@XX.oOOOOOOOOOOOOOOOOOO+.                 ",
"........oOOOOOO+.XX@@X@@XX.oOOOOOOOOOOOOOOOOO+.... .............",
"++++++++oOOOOOO+.XX@XXX@XX.oOOOOOOOOOOOoooOOO++++. .++++++++++++",
"OOOOOOOOOOOOOOO+.XX@@X@@XX.oOOOOOOOOOOo...oOOOOO+. .oOOOOOOOOOOO",
"OOOOOOOOOOOOOOOO+.XX@@@XX.oooooooooooo.XXX.oOOOO+. .oOOOOOOOOOOO",
"OOOOOOOOOOOOOOOOO+.XX@XX..............XXXXX.oOOO+. .oOOOOOOOOOOO",
"OOOOOOOOOOOOOOOOO+.XX@XXXXXXXXXXXXXXXXX@@@XX.oOO+. .oooOOOOOOOOO",
"OOOOOOOOOOOOOOOOO+.XX@XXXXXXXXXXXXXXXX@@@@@XX.oO+. ...oOOOOOOOOO",
"OOOOOOOOOOOOOOOO+.XX@@@@@@@@@@@@@@@@@@@@@@@XX.oO+.   .oOOOOOOOOO",
"OOOOOOOOOOOOOOOOO+.XX@XXXXX@XXXXXXXXXX@@@@@XX.oO+... .oOOOOOOOOO",
"OOOOOOOOOOOOOOOOO+.XX@XXXXX@XXXXXXXX@XX@@@XX.oOO+++. .oOOOOOOOOO",
"OOOOOOOOOOOOOOOOO+.XX@XXXX@@@@@@@@@@@@XX@XX.oOOOOO+. .oOOOOOOOOO",
"OOOOOOOOOOOOOOOOO+.XX@XX.XX@XXXXXXXX@XXX@XX.oOOOOO+. .oOOOOOOOOO",
"ooooooooooooOOOOO+.XX@XX..XXXXXXXXXX@XXX@XX.oOOOOO+. .oO+ooooooo",
"...........oOOOOO+.XX@XX.+.X......XX@XXX@XX.oOOOOO+. .oO+.......",
"          .oOOOOO+.XX@XX.o+.++....XX@XXX@XX.oOOOOO+. .oO+.      ",
"......... .oOOOOO+.XX@XX.oo+..XXXXXX@XXX@XX.oOOOOO+. .oo+. .....",
"++++++++. .oOOOOO+.XX@XX.....XXXXXXX@XXX@XX.oOOOOO+. ..... .++++",
"OOOOOOO+. .oOOOOO+.XX@XX.XXXXX@@XXXX@XXX@XX.oOOOOO+.       .oOOO",
"OOOOOOO+. .oOOOOO+.XX@XXXXXXX@@@@@@@@@XX@XX.oOOOOO+.........oOOO",
"OOOOOOO+. .oOOOOO+.XX@XXX@X@XX@@XXXX@XX@@@XX.oOOOO++++++++++oOOO",
"OOOOOOO+. .oOOOOO+.XX@XX@@X@XXXXXXXXXX@@@@@XX.oOOOOOOOOOOOOOOOOO",
"OOOOOO++. .oOOOOO+.XX@X@@@X@@@@@@@@@@@@@@@@XX.o+ooooooooooooooOO",
"OOOOOO+.. .oOOOOO+.XX@XX@@X@XXXXXXXXXX@@@@@XX.o+.............oOO",
"OOOOOO+.  .oOOOOO+.XX@XXX@X@XXXXXXXXXXX@@@XXX.o+.           .oOO",
"OOOOOO+. ..oOOOOO+.XX@XXXXXXXX........XXXXXX..o+. ......... .oOO",
"OOOOOO+. .ooOOOOO+.XX@XX.XXXXX.+++++++.XXXX..+O+. .+++++++. .oOO",
"OOOOOO+. .oOOOOOO+.XX@XX.......+OOOOOO+.....+OO+. .oOOOOO+. .oOO",
"OOOOOO+. .oOOOOOO+.XX@XX.+++++++OOOOOOO+++++OOO+. .oOOOOO+. .oOO",
"oooooo+. .oOOOO+...XX@XX...ooooooooooooooooooooo. .oOOOOO+. .ooo",
"........ .oOOOO+.XXXX@XXXX.o+.................... .oOOOOO+. ....",
"         .oOOOO+.XXXX@XXXX.o+.                    .oOOOOO+.     ",
"........ .oOOOO+.XX@@@@@XX.o+. ....... ............oOOOOO+......",
"+++++++. .oOOOO+.XXXXXXXXX.o+. .+++++. .+++++++++++oOOOOO+++++++",
"OOOOOO+. .oOOOO+.XX@@@@@XX.o+. .oOOO+. .oOOOOOOOOOOOOOOOOOOOOOOO",
"OOOOOO+. .oooooo+.XX@@@XX.oO+. .oOOO+. .oOOOOOOOOOOOOOOOOOOOOOOO",
"OOOOOO+. ......oO+.XX@XX.oOO+. .oOOO+. .oOOOOOOOOOOOOOOOOOOOOOOO",
"OOOOOO+.      .oOO+.XXX.oOOO+. .oOOO+. .oOOOOOOOOOOOOOOOOOOOOOOO",
"OOOOOO+...... .oOOO+.X.oOOOO+. .oOOO+. .oOOOOOOOOOOOOOOOOOOOOOOO",
"OOOOOO++++++. .oOOOO+.oOOOOO+. .oOOO+. .oOOOOOOOOOOOOOOOOOOOOOOO",
"OOOOOOOOOOO+. .oOOOOO+OO+++++. .oOOO+. .ooOOOOOOOOOOOOOOOOOOOOOO",
"OOOOOOOOOOO+. .oOOOOOOOO+..... .oOOO+. ..oOOOOOOOOOOOOOOOOOOOOOO",
"OOOOOOOOOOO+. .oOOOOOOOO+.     .oOOO+.  .oOOOOOOOOOOOOOOOOOOOOOO",
"OOOOOOOOOOO+. .oOOOOOOOO+. .....oOOO+.. .oOOOOOOOOOOOOOOOOOOOOOO",
"OOOOOOOOOOO+. .oOOOOOOOO+. .+++++OOO++. .oOOOOOOOOOOOOOOOOOOOOOO",
"oooooooooooo. .oooooooooo. .ooooooooo+. .ooooooooooooooooooooooo",
"............. ............ ............ ........................",
"                                                                "
};
