/* XPM */
static char *result[] = {
/* columns rows colors chars-per-pixel */
"64 64 7 1 ",
"  c black",
". c gray33",
"X c #800000",
"o c #848484",
"O c gray66",
"+ c #CECDCD",
"@ c white",
/* pixels */
" ...............................................................",
" .+++++++++++++++++++++++++++++++++++++++++++++++++++++++++++++.",
" .oOOOOOOOOOOOOOOOOOOOOOOOOOOOOOOOOOOOOOOOOOOOOOOOOOOOOOOOOOOO+.",
" .oOOOOOOOOOOOOOOOOOOOOOOOOOOOOOOOOOOOOOOOOOOOOOOOOOOOOOOOOOOO+.",
" .oOOOOOOOOOOOOOOOOOOOOOOOOOOOOOOOOOOOOOOOOOOOOOOOOOOOOOOOOO+...",
" .oOOOOOOOOOOOOOOOOOOOOOOOOOOOOOOOOOOOOOOOOOOOOOOOOOOOOOOOOO+.  ",
"..oOOOOOOOOOOOOOOOooooooooooooooOOOOOOOOOOOOOOOOOOOOOOOOOOOO+. .",
"+++OOOOOOOOOOOOOOO+............oOOOOOOOOOOOOOOOOOOOOOOOOOOOO+. .",
"oOOOOOOOOOOOOOOOOO+.          .oOOOOOOOOOOOOOOOOOOOOOOOOOOOO+. .",
"oOOOOOOOOOOOOOOOOO+. ........ .oooooooooooooooooooOOOOOOOOOO+. .",
"oOOOOOOOOOOOOOOOOO+. .++++++. ...................oOOOOOOOOOO+. .",
"oOOOoooooooooooooo+. .oOOOO+.                   .oOOOOOOOOOO+. .",
"oOOO+............... .oOOOO+................... .oOOOOOOOOOO+. .",
"oOOO+.               .oOOOO+++++++++++++++++++. .oOOOOOOOOOO+. .",
"oooo+. ...............ooOOOOOOOOOOOOOOOOOOOOO+. .ooooooooooo+. .",
"...... .++++++++++++++o.oOOOOOOOOOOOOOOOOOOOO+. .............. .",
"       .oOOOOOOOOOOOO+.X.oOOOOOOOOOOOOOoOOOOO+.                 ",
"........oOOOOOOOOOOO+.XXX.oOOOOOOOOOOO+.oOOOO+. ................",
"++++++++oOOOOOOOOOO+.XXXXX.oOOOOOOOOO+.X.oOOO+. .+++++++++++++++",
"OOOOOOOOOOOOOOOOOO+.XX@@@XX.oOOOOOOO+.XXX.oOO+. .oOOOOOOOOOOOOOO",
"OOOOOOOOOOOOOOOOO+.XX@@X@@XX.oOOOOO+.XX@XX.oO+. .oOOOOOOOOOOOOOO",
"OOOOOOOOOOOOOOOOO+.XX@XXX@XX.oOOOO+.XX@@@XX.o+. .oOOOOOOOOOOOOOO",
"OOOOOOOOOOOOOOOOO+.XX@@X@@XX.oOOOO+.XX@@@XX.o+. .ooooooOOOOOOOOO",
"OOOOOOOOOOOOOOooo+.XX@@@@@XX.ooooo.XX@XXX@XX.+. ......oOOOOOOOOO",
"OOOOOOOOOOOOOo....XX@XXXXX@XX.....XX@XXXXX@XX..      .oOOOOOOOOO",
"OOOOOOOOOOOOo.XXXXX@XXX@XXX@XXXXXXX@XX...XX@XX...... .oOOOOOOOOO",
"OOOOOOOOOOOo.XXXXX@XXX@@@XXX@XXXXX@XX.+++.XX@XX..++. .oOOOOOOOOO",
"OOOOOOOOOOo.XX@@@@XXX@X@X@XXX@@@@@XX.oOOO+.XX@XXX.+. .oOOOOOOOOO",
"OOOOOOOOO+.XX@@X@@XX@XXXXX@XX@@X@@XX.oOOOO+.XX@@XX.. .oOOOOOOOOO",
"ooooooooO+.XX@XXX@X@@@XXX@@@X@XXX@XX.oOOOO+.XX@@@XX. .oO+ooooooo",
".......oO+.XX@@X@@XX@XXXXX@XX@@X@@XX.oOOOO+.XX@@XX.. .oO+.......",
"      .oOO+.XX@@@@XXX@XXXXXXXX@@@XX.oOOOO+.XX@XXX.+. .oO+.      ",
"..... .oOOO+.XXXXX@XXX@X@XX..XXXXX.oOOOO+.XX@XXX.o+. .oo+. .....",
"++++. .oOOOO+.XXXXX@XXX@@XX.+.XXX.oOOOO+.XX@XX..oO+. ..... .++++",
"OOO+. .ooooOO+....XX@X@@@XX.o+...oOOOO+.XX@XX.ooOO+.       .oOOO",
"OOO+. ....oOOO++++.XX@XXXXX.oO+++OOOO+.XX@XX.oOOOO+... .....oOOO",
"OOO+.    .oOOOOOOO+.XX@XXXX.oOOOOOOO+.XX@XX.oOOOOO+++. .++++oOOO",
"OOO+.... .oOOOOOOOO+.XX@XX..oOOOOOO+.XX@XX.oOOOOOOOO+. .oOOOOOOO",
"OOO++++. .oOOOOOOOOO+.XX@XX.oOOOOO+.XX@XX.ooooooooooo. .ooooooOO",
"OOOOOO+. .oOOOOOOOOOO+.XX@XX.ooooo.XX@XX.............. ......oOO",
"OOOOOO+. .ooooooooooOO+.XX@XX.....XX@XX.+.                  .oOO",
"OOOOOO+. ..........oOOO+.XX@XXXXXXX@XX.o+. ................ .oOO",
"OOOOOO+.          .oOOOO+.XX@XXXXX@XX.oO+. .++++++++++++++. .oOO",
"OOOOOO+. ........ .oOOOOO+.XX@@@@@XX.oOO+. .oOOOOOOOOOOOO+. .oOO",
"OOOOOO+. .++++++. .oOOOOO+.XX@@X@@XX.oOO+. .oOOOOOOOOOOOO+. .oOO",
"oooooo+. .oOOOO+. .oOOOOO+.XX@XXX@XX.oOO+. .oOOOOOOOOOOOO+. .ooo",
"........ .oOOOO+. .oOOOOO+.XX@@X@@XX.oOO+. .oOOOOOOOOOOOO+. ....",
"         .oOOOO+. .oOOOOOO+.XX@@@XX.oOOO+. .oOOOOOOOOOOOO+.     ",
"........ .oOOOO+. .oOOOOOOO+.XXXXX..OOOO+. .oOOOOOOOOOOOO+......",
"+++++++. .oOOOO+. .oOOOOOOOO+.XXX.ooOOOO+. .oOOOOOOOOOOOO+++++++",
"OOOOOO+. .oOOOO+. .oOOOOOOOOO+...+OOOOOO+. .oOOOOOOOOOOOOOOOOOOO",
"OOOOOO+. .oooooo. .ooooooooooO+++OOOOOOO+. .oOOOOOOOOOOOOOOOOOOO",
"OOOOOO+. ........ ..........oOOOOOoooooo+. .oOOOOOOOOOOOOOOOOOOO",
"OOOOOO+.                   .oOOOOO+....... .oOOOOOOOOOOOOOOOOOOO",
"OOOOOO+................... .oOOOOO+.       .oOOOOOOOOOOOOOOOOOOO",
"OOOOOO+++++++++++++++++++. .oooooo+. .......oOOOOOOOOOOOOOOOOOOO",
"OOOOOOOOOOOOOOOOOOOOOOOO+. ......... .++++++oOOOOOOOOOOOOOOOOOOO",
"OOOOOOOOOOOOOOOOOOOOOOOO+.           .oOOOOOOOOOOOOOOOOOOOOOOOOO",
"OOOOOOOOOOOOOOOOOOOOOOOO+........... .oOOOOOOOOOOOOOOOOOOOOOOOOO",
"OOOOOOOOOOOOOOOOOOOOOOOO+++++++++++. .oOOOOOOOOOOOOOOOOOOOOOOOOO",
"OOOOOOOOOOOOOOOOOOOOOOOOOOOOOOOOOO+. .oOOOOOOOOOOOOOOOOOOOOOOOOO",
"ooooooooooooooooooooooooooooooooooo. .oooooooooooooooooooooooooo",
".................................... ...........................",
"                                                                "
};
