/* XPM */
static char *result[] = {
/* columns rows colors chars-per-pixel */
"64 64 8 1 ",
"  c black",
". c gray33",
"X c #800000",
"o c #33FF00",
"O c #848484",
"+ c gray66",
"@ c #CECDCD",
"# c None",
/* pixels */
" ....... ...... ##################################### . ........",
" .@@@@@. .@@@@. ##################################### . .@@@@@@.",
" .O+++@. .+++@. ##################################### . .O++++@.",
" .O+++@. .+++@. ##################################### . .O++OO@.",
" .O+++@. .++@. ##################################### .. .O++@...",
" .O...@. .+@. ##################################### .O. .O++@.  ",
"..O.o.@. .@. ##################################### .O+. .O++@. .",
"@@O.o.@. .. ##################################### .O++. .O++@. .",
"+++.o.@. . ##################################### .O+++. .O++@. .",
"+++.o.@. . ##################################### .O+++. .O++@. .",
"+++.o.@. . ##################################### .O+++. .O++@. .",
"+++...@. . ##################################### .O+++. .O++@. .",
"++++++@. .. ##################################### .O++. .O++@. .",
"++++++@. .@. ##################################### .O+. .O++@. .",
"OOOOOO@. .+@. ##################################### .O. .O++@. .",
"........ .++@. ##################################### .. .O++@. .",
"         .X++@. ##################################### . .O++@.  ",
"........ .+++@. ##################################### . .O++@...",
"@@@@@@@. .XX+@. ##################################### . .O++@@@@",
"++++++@. .X++@. ##################################### . .O++++++",
"+++...@. .++@. ##################################### .. .O...+++",
"+++.o.@. .+@. ##################################### .O. .O.o.+++",
"+++.o.@. .@. ##################################### .O+. .O.o.+++",
"+++.o.@. .. ##################################### .O++. .O.o.+++",
"+++.o.@. . ##################################### .O+++. .O.o.+++",
"+++.o.@. . ##################################### .O+++. .O.o.+++",
"+++...@. . ##################################### .O+++. .O...+++",
"++++++@. . ##################################### .O+++. .O++++++",
"++++++@. .. ##################################### .O++. .O++++++",
"OOOOOO@. .@. ##################################### .O+. .OOOOOOO",
"........ .+@. ##################################### .O. ........",
"         .++@. ##################################### ..         ",
"........ .+++@. ##################################### . ........",
"@@@@@@@. .X++@. ##################################### . .@@@@@@@",
"++++++@. .X++@. ##################################### . .O++++++",
"++++++@. .+++@. ##################################### . .O++++++",
"+++...@. .++@. ##################################### .. .O...+++",
"+++.o.@. .+@. ##################################### .O. .O.o.+++",
"+++.o.@. .@. ##################################### .O+. .O.o.+++",
"+++.o.@. .. ##################################### .O++. .O.o.+++",
"+++.o.@. . ##################################### .O+++. .O.o.+++",
"+++.o.@. . ##################################### .O+++. .O.o.+++",
"+++...@. . ##################################### .O+++. .O...+++",
"++++++@. . ##################################### .O+++. .O++++++",
"++++++@. .. ##################################### .O++. .O++++++",
"OOOOOO@. .@. ##################################### .O+. .OOOOOOO",
"........ .+@. ##################################### .O. ........",
"         .++@. ##################################### ..         ",
"........ .+++@. ##################################### . ........",
"@@@@@@@. .+++@. ##################################### . .@@@@@@@",
"++++++@. .+++@. ##################################### . .O++++++",
"++++++@. .+++@. ##################################### . .O++++++",
"+++...@. .++@. ##################################### .. .O...+++",
"+++.o.@. .+@. ##################################### .O. .O.o.+++",
"+++.o.@. .@. ##################################### .O+. .O.o.+++",
"+++.o.@. .. ##################################### .O++. .O.o.+++",
"+++.o.@. . ##################################### .O+++. .O.o.+++",
"+++.o.@. . ##################################### .O+++. .O.o.+++",
"+++...@. . ##################################### .O+++. .O...+++",
"++++++@. . ##################################### .O+++. .O++++++",
"++++++@. .. ##################################### .O++. .O++++++",
"OOOOOO@. .@. ##################################### .O+. .OOOOOOO",
"........ .O@. ##################################### .O. ........",
"         ..... ##################################### ..         "
};
