/* XPM */
static char *result[] = {
/* columns rows colors chars-per-pixel */
"64 64 6 1 ",
"  c gray33",
". c #4DAC73",
"X c #848484",
"o c gray66",
"O c #CECDCD",
"+ c white",
/* pixels */
".                                                               ",
". OOOOOOOOOOOOOOOOOOOOOOOOOOOOOOOOOOOOOOOOOOOOOOOOOOOOOOOOOOOOO ",
". XoooooooooooooooooooooooooooooooooooooooooooooooooooooooooooO ",
". XoooooooooooooooooooooooooooooooooooooooooooooooooooooooooooO ",
". XoooooooooooooooooooooooooooooooooooooooooooooooooooooooooO   ",
". XoooooooooooooooooooooooooooooooooooooooooooooooooooooooooO ..",
"  XoooooooooooooooXXXXXXXXXXXXXXooooooooooooooooooooooooooooO . ",
"OOOoooooooooooooooO            XooooooooooooooooooooooooooooO . ",
"ooooooooooooooooooO .......... XooooooooooooooooooooooooooooO . ",
"ooooooooooooooooooO .        . XXXXXXXXXXXXXXXXXXXooooooooooO . ",
"ooooooooooooooooooO . OOOOOO .                   XooooooooooO . ",
"ooooXXXXXXXXXXXXXXO . XooooO ................... XooooooooooO . ",
"ooooO               . XooooO                   . XooooooooooO . ",
"ooooO ...............  XoooOOOOOOOOOOOOOOOOOOO . XooooooooooO . ",
"XXXXO .             ... XooooooooooooooooooooO . XXXXXXXXXXXO . ",
"      . OOOOOOOOOO ..... XoooooooooooooooooooO .              . ",
"....... XoooooooO ..+++.. XooooooooooooooooooO ................ ",
"        XooooooO ..++.++.. XoooooooooooooooooO .                ",
"OOOOOOOOXooooooO ..+...+.. XoooooooooooXXXoooO . OOOOOOOOOOOOOOO",
"oooooooooooooooO ..++.++.. XooooooooooX   XooO . Xoooooooooooooo",
"ooooooooooooooooO ..+++.. XXXXXXXXXXXX ... XoO . Xoooooooooooooo",
"oooooooooooooooooO ..+..              ..... XO . Xoooooooooooooo",
"oooooooooooooooooO ..+.................+++.. O . XXXXXXooooooooo",
"oooooooooooooooooO ..+................+++++..  .      Xooooooooo",
"ooooooooooooooooO ..+++++++++++++++++++++++.......... Xooooooooo",
"oooooooooooooooooO ..+.....+..........+++++..       . Xooooooooo",
"oooooooooooooooooO ..+.....+........+..+++.. OOOOOO . Xooooooooo",
"oooooooooooooooooO ..+....++++++++++++..+.. XoooooO . Xooooooooo",
"oooooooooooooooooO ..+.. ..+........+...+.. XoooooO . Xooooooooo",
"XXXXXXXXXXXXXXXXXX ..+..  ..........+...+.. XoooooO . XoOXXXXXXX",
"                   ..+..   .      ..+...+.. XoooooO . XoO       ",
".....................+..........  ..+...+.. XoooooO . XoO ......",
"         .         ..+..      ......+...+.. XXXXXXO . XXO .     ",
"OOOOOOOO . OOOOOOO ..+..     .......+...+..         .     . OOOO",
"oooooooO . XoooooO ..+.. .....++....+...+.................. Xooo",
"oooooooO . XoooooO ..+.......+++++++++..+..                 Xooo",
"oooooooO . XoooooO ..+...+.+..++....+..+++.. OOOOOOOOOOOOOOOXooo",
"oooooooO . XoooooO ..+..++.+..........+++++.. Xooooooooooooooooo",
"ooooooOO . XoooooO ..+.+++.++++++++++++++++.. XXXXXXXXXXXXXXXXoo",
"ooooooO  . XoooooO ..+..++.+..........+++++..                Xoo",
"ooooooO .. XoooooO ..+...+.+...........+++.................. Xoo",
"ooooooO .  XoooooO ..+........        ......               . Xoo",
"ooooooO . XXoooooO ..+.. ..... OOOOOOO ....  OOOOOOOOOOOOO . Xoo",
"ooooooO . XooooooO ..+..       OooooooO   . XooooooooooooO . Xoo",
"ooooooO . XooooooO ..+.. OOOOOOOoooooooOO . XooooooooooooO . Xoo",
"XXXXXXO . XooooO   ..+..   XXXXXXXXXXXXXO . XooooooooooooO . XXX",
"        . XooooO ....+....                . XooooooooooooO .    ",
"......... XooooO ....+....  ............... XooooooooooooO .....",
"        . XooooO ..+++++..  .       .       XooooooooooooO      ",
"OOOOOOO . XooooO .........  . OOOOO . OOOOOOXooooooooooooOOOOOOO",
"ooooooO . XooooO ..+++++..  . XoooO . Xooooooooooooooooooooooooo",
"ooooooO . XXXXXXX ..+++.. O . XoooO . Xooooooooooooooooooooooooo",
"ooooooO .          ..+..    . XoooO . Xooooooooooooooooooooooooo",
"ooooooO ..................... XoooO . Xooooooooooooooooooooooooo",
"ooooooO              .        XoooO . Xooooooooooooooooooooooooo",
"ooooooOOOOOOOOOOOOOOO OOOOOOOOXoooO . Xooooooooooooooooooooooooo",
"ooooooooooooooooooooooooooooooooooO . XXoooooooooooooooooooooooo",
"ooooooooooooooooooooooooooooooooooO .  Xoooooooooooooooooooooooo",
"ooooooooooooooooooooooooooooooooooO .. Xoooooooooooooooooooooooo",
"ooooooooooooooooooooooooooooooooooO  . Xoooooooooooooooooooooooo",
"ooooooooooooooooooooooooooooooooooOO . Xoooooooooooooooooooooooo",
"XXXXXXXXXXXXXXXXXXXXXXXXXXXXXXXXXXXO . XXXXXXXXXXXXXXXXXXXXXXXXX",
"                                     .                          ",
"................................................................"
};
