/* XPM */
static char *result[] = {
/* columns rows colors chars-per-pixel */
"64 64 7 1 ",
"  c black",
". c gray33",
"X c #800000",
"o c red",
"O c #848484",
"+ c gray66",
"@ c #CECDCD",
/* pixels */
" ................... .........    ......... ....................",
" .@@@@@@@@@@@@@@@@@. .O@@@@@@.    .O@@@@@@. .O@@@@@@@@@@@@@@@@@.",
" .O+++++++++++++++@. .O+++++@.    .O+++++@. .O+++X++X+++++++++@.",
" .OOOOOOOOOOOOOOO+@. .O+++++@.    .O+++++@. .O+++X+X++X+++++OO@.",
" ...............O+@. .O+...+@.    .O+...+@. .O+X+X+X+X++++++@...",
"               .O+@. .O+.o.+@.    .O+.o.+@. .O+X++X+XX++++++@.  ",
".............. .O+@. .O+.o.+@.    .O+.o.+@. .O++++++X+++++++@. .",
"@@@@@@@@@@@@@. .OO@. .O+.o.+@.    .O+.o.+@. .O++XXX+++++++++@. .",
"+++++++++@.... ..... .O+.o.+@.    .O+.o.+@. .O+XX+XX++XX++++@. .",
"+++++++++@.          .O+.o.+@.    .O+.o.+@. .O+X+++++++X++++@. .",
"+++++++++@. ........ .O+...+@.    .O+...+@. .O+XXX++X+X+++++@. .",
"+++++++++@. .O@@@@@. .O+++++@.    .O+++++@. .O++XXXXX@OOOOOO@. .",
"+++++++++@. .O++++@. .O+++++@.    .O+++++@. .O++X+XX+@........ .",
"+++++++++@. .O++++@. .OOOOOO@.    .OOOOOO@. .O++X+X++@.        .",
"OOOOOOOOO@. .O++++@. .........    ......... .O++X++++@. ...... .",
"........... .O++++@.                        .O+++++++@. .@@@@. .",
"            .O++++@. .........    ......... .O+++++++@. .+++@.  ",
".............O++++@. .O@@@@@@.    .O@@@@@@. .O+++++++@. .+++@...",
"@@@@@@@@@@@@@@++++@. .O+++++@.    .O+++++@. .OOOOOOOOO. .+++@@@@",
"++++++++++++++++++@. .O+++++@.    .O+++++@. ........... .+++++++",
"++++++++++++++++++@. .O+...+@.    .O+...+@.             .+++++++",
"++++++++++++++++++@. .O+.o.+@.    .O+.o.+@. ..... .......+++++++",
"+++++++++OOOOOOOOO@. .O+.o.+@.    .O+.o.+@. .@@@. .@@@@@@+++++++",
"+++++++++@........@. .O+.o.+@.    .O+.o.+@. .O@@. .O++++++++++++",
"+++++++++@.      .@. .O+.o.+@.    .O+.o.+@. .O+@. .O++++++++++++",
"+++++++++@. .... .@. .O+.o.+@.    .O+.o.+@. .O+@. .O++++++++++++",
"+++++++++@. .@@. .@. .O+...+@.    .O+...+@. .O+@. .O++++++++++++",
"+++++++++@. .O@. .@. .O+++++@.    .O+++++@. .O+@. .O++++++++++++",
"+++++++++@. .O@. .@. .O+++++@.    .O+++++@. .O+@. .O++++++++++++",
"OOOOOOOOO@. .O@. .@. .OOOOOO@.    .OOOOOO@. .O+@. .OOOOOOOOOOOOO",
"........... .O@. .@. .........    ......... .O+@. ..............",
"            .O@. .@.                        .O+@.               ",
".............O@. .@. .........    ......... .O+@................",
"@@@@@@@@@@@@@@@. .@. .O@@@@@@.    .O@@@@@@. .O+@@@@@@@@@@@@@@@@@",
"++++++++++++++@. .@. .O+++++@.    .O+++++@. .O++++++++++++++++++",
"++++++++++++++@. .@. .O+++++@.    .O+++++@. .O++++++++++++++++++",
"++++++++++++++@. .@. .O+...+@.    .O+...+@. .O++++++++++++++++++",
"++++++++++++++@. ... .O+.o.+@.    .O+.o.+@. .O++++++++++++++++++",
"+++++@OOOOOO++@.     .O+.o.+@.    .O+.o.+@. .O++++++++++++++++++",
"+++++@.....O++@..... .O+.o.+@.    .O+.o.+@. .O++++++++++++++++++",
"+++++@.   .O++@@@@@. .O+.o.+@.    .O+.o.+@. .O++++++++++++++++++",
"+++++@. . .O++++++@. .O+.o.+@.    .O+.o.+@. .OOOOOOOOOOOOOO+++++",
"+++++@.   .O++++++@. .O+...+@.    .O+...+@. ..............O+++++",
"+++++@.. ..O++++++@. .O+++++@.    .O+++++@.              .O+++++",
"+++++@@. .OO++++++@. .O+++++@.    .O+++++@. ............ .O+++++",
"OOOOOO@. .OO++@OOO@. .OOOOOO@.    .OOOOOO@. .@@@@@@@@@@. .OOOOOO",
"........ ..O++@..... .........    ......... .O++++++++@. .......",
"          .OOO@.                            .O++++++++@.        ",
"......... ...... ... .........    ......... .O++++++++@. .......",
"@@@@@@@@.        .@. .O@@@@@@.    .O@@@@@@. .O++++++++@. .@@@@@@",
"+++++++@... ......@. .O+++++@.    .O+++++@. .O++++++++@. .O+++++",
"+++++++@@@. .@@@@@@. .O+++++@.    .O+++++@. .O+++++OOO@. .O+++++",
"+++++++++@. .....O@. .O+...+@.    .O+...+@. .O+++++@.... .O+++++",
"+++++++++@. .   .O@. .O+.o.+@.    .O+.o.+@. .O+++++@.    .O+++++",
"+@OOOOOO+@.   . .O@. .O+.o.+@.    .O+.o.+@. .OOOOOO@. ....O+++++",
"+@.....OO@. .   .O@. .O+.o.+@.    .O+.o.+@. ......... .@@@O+++++",
"+@.   ..... .....O@. .O+.o.+@.    .O+.o.+@.           .O++++++++",
"+@. .       .O@@@@@. .O+.o.+@.    .O+.o.+@. ...........O++++++++",
"+@.   .......O++++@. .O+...+@.    .O+...+@. .@@@@@@@@@@O++++++++",
"+@.....O@@@@@@++++@. .O+++++@.    .O+++++@. .O++++++++++++++++++",
"+@@@@@@O++++++++++@. .O+++++@.    .O+++++@. .O++++++++++++++++++",
"OOOOOOOOOOOOOOOOOO@. .OOOOOO@.    .OOOOOO@. .OOOOOOOOOOOOOOOOOOO",
".................... .........    ......... ....................",
"                                                                "
};
