/* XPM */
static char *result[] = {
/* columns rows colors chars-per-pixel */
"64 64 6 1 ",
"  c gray33",
". c #0066FF",
"X c #848484",
"o c gray66",
"O c #CECDCD",
"+ c white",
/* pixels */
".                                                               ",
". OOOOOOOOOOOOOOOOOOOOOOOOOOOOOOOOOOOOOOOOOOOOOOOOOOOOOOOOOOOOO ",
". XoooooooooooooooooooooooooooooooooooooooooooooooooooooooooooO ",
". XoooooooooooooooooooooooooooooooooooooooooooooooooooooooooooO ",
". XoooooooooooooooooooooooooooooooooooooooooooooooooooooooooO   ",
". XoooooooooooooooooooooooooooooooooooooooooooooooooooooooooO ..",
"  XoooooooooooooooXXXXXXXXXXXXXXooooooooooooooooooooooooooooO . ",
"OOOoooooooooooooooO            XooooooooooooooooooooooooooooO . ",
"ooooooooooooooooooO .......... XooooooooooooooooooooooooooooO . ",
"ooooooooooooooooooO .        .   XXXXXXXXXXXXXXXXXooooooooooO . ",
"ooooooooooooooooooO . OOOOOO ....                XooooooooooO . ",
"ooooXXXXXXXXXXXXXXO . XooooO ................... XooooooooooO . ",
"ooooO               . XoooO ..+++..            . XooooooooooO . ",
"ooooO ............... XooO ..++.++.. OOOOOOOOO . XooooooooooO . ",
"XXXXO .               XooO ..+...+.. XoooooooO . XXXXXXXXXXXO . ",
"      . OOOOOOOOOOOOOOXooO ..++.++.. XoooooooO .              . ",
"....... XoooooooooooooooooO ..+++.. XooooooooO ................ ",
"        XooooooooooXXXoooooO ..+.. XoooooXXXoO .                ",
"OOOOOOOOXoooooooooO   XooooO ..+.. XooooX   XO . OOOOOOOOOOOOOOO",
"oooooooooooooooooO ... XXXXO ..+.. XXXXX ... O . Xoooooooooooooo",
"ooooooooooooooooO .....      ..+..      .....  . Xoooooooooooooo",
"oooooooooooooooO ..+++........+++........+++.. . Xoooooooooooooo",
"ooooooooooooooO ..++.++......++.++......++.++... XXXXXXooooooooo",
"ooooooooooooooO ..+...++++++++...++++++++...+..       Xooooooooo",
"ooooooooooooooO ..++.++......++.++......++.++........ Xooooooooo",
"oooooooooooooooO ..+++........+++........+++..      . Xooooooooo",
"ooooooooooooooooO ..+..      ..+..      ..+.. OOOOO . Xooooooooo",
"ooooooooooooooO   ..+..   OO ..+.. OOOO ..+.. XoooO . Xooooooooo",
"ooooooooooooooO ....+.... XO ..+.. XooO ..+.. XoooO . Xooooooooo",
"XXXXXXXXXXXXXXX ....+.... XX ..+.. XooO ..+.. XoooO . XoOXXXXXXX",
"                ..+++++..    ..+.. XooO ..+.. XoooO . XoO       ",
"...............................+.. XooO ..+.. XoooO . XoO ......",
"         .      ..+++++..    ..+.. XXXX ..+.. XXXXO . XXO .     ",
"OOOOOOOO . OOOOO ..+++.. OOO ..+..      ..+..       .     . OOOO",
"oooooooO . XooooO ..+.. OooO ..+.. .......+................ Xooo",
"oooooooO . XoooooO ... OoooO ..+..      ..+..               Xooo",
"oooooooO . XooooooO . OooooO ..+.. OO   ..+..   OOOOOOOOOOOOXooo",
"oooooooO . XoooooooO OoooooO ..+.. XO ....+.... Xooooooooooooooo",
"ooooooOO . XooooooooOooooooO ..+.. XO ....+.... XXXXXXXXXXXXXXoo",
"ooooooO  . XoooooooooooooooO ..+.. XO ..+++++..              Xoo",
"ooooooO .. XoooooooooooooooO ..+.. XO ...................... Xoo",
"ooooooO .  XoooooooooooooO   ..+..     .+++++..            . Xoo",
"ooooooO . XXoooooooooooooO ....+.... O ..+++.. OOOOOOOOOOO . Xoo",
"ooooooO . XooooooooooooooO ....+.... XO ..+.. XooooooooooO . Xoo",
"ooooooO . XooooooooooooooO ..+++++.. XoO ... XoooooooooooO . Xoo",
"XXXXXXO . XooooooooooooooO ......... XXXO . XooooooooooooO . XXX",
"        . XooooooooooooooO ..+++++..      . XooooooooooooO .    ",
"......... XoooooooooooooooO ..+++.......... XooooooooooooO .....",
"        . XoooooooooooooooO ...+..  .       XooooooooooooO      ",
"OOOOOOO . XoooooooooooooooO . ...   . OOOOOOXooooooooooooOOOOOOO",
"ooooooO . XoooooooooooooooO .  . OO . Xooooooooooooooooooooooooo",
"ooooooO . XXXXXXXXXXXXXXXXO . X OoO . Xooooooooooooooooooooooooo",
"ooooooO .                   . XOooO . Xooooooooooooooooooooooooo",
"ooooooO ..................... XoooO . Xooooooooooooooooooooooooo",
"ooooooO                       XoooO . Xooooooooooooooooooooooooo",
"ooooooOOOOOOOOOOOOOOOOOOOOOOOOXoooO . Xooooooooooooooooooooooooo",
"ooooooooooooooooooooooooooooooooooO . XXoooooooooooooooooooooooo",
"ooooooooooooooooooooooooooooooooooO .  Xoooooooooooooooooooooooo",
"ooooooooooooooooooooooooooooooooooO .. Xoooooooooooooooooooooooo",
"ooooooooooooooooooooooooooooooooooO  . Xoooooooooooooooooooooooo",
"ooooooooooooooooooooooooooooooooooOO . Xoooooooooooooooooooooooo",
"XXXXXXXXXXXXXXXXXXXXXXXXXXXXXXXXXXXO . XXXXXXXXXXXXXXXXXXXXXXXXX",
"                                     .                          ",
"................................................................"
};
